STARTFONT 2.3
FONT -FontForge-Monofett-Book-R-Normal--14-140-72-72-P-76-ISO10646-1
SIZE 14 72 72  2
FONTBOUNDINGBOX 9 16 0 -2
COMMENT "Generated by fontforge, http://fontforge.sourceforge.net"
COMMENT "Copyright (c) 2011 by vernon adams. All rights reserved."
STARTPROPERTIES 41
FOUNDRY "FontForge"
FAMILY_NAME "Monofett"
WEIGHT_NAME "Book"
SLANT "R"
SETWIDTH_NAME "Normal"
ADD_STYLE_NAME ""
PIXEL_SIZE 14
POINT_SIZE 140
RESOLUTION_X 72
RESOLUTION_Y 72
SPACING "P"
AVERAGE_WIDTH 76
CHARSET_REGISTRY "ISO10646"
CHARSET_ENCODING "1"
FONTNAME_REGISTRY ""
CHARSET_COLLECTIONS "ISO8859-2 ISO8859-9 ISO8859-4 ISO10646-1"
BITS_PER_PIXEL 2
FONT_NAME "Monofett"
FACE_NAME "Monofett"
COPYRIGHT "Copyright (c) 2011 by vernon adams. All rights reserved."
FONT_VERSION "1.000"
FONT_ASCENT 11
FONT_DESCENT 3
UNDERLINE_POSITION -2
UNDERLINE_THICKNESS 1
X_HEIGHT 9
CAP_HEIGHT 9
RAW_ASCENT 799
RAW_DESCENT 200
NORM_SPACE 2
RELATIVE_WEIGHT 40
RELATIVE_SETWIDTH 50
SUPERSCRIPT_X 0
SUPERSCRIPT_Y 6
SUPERSCRIPT_SIZE 9
SUBSCRIPT_X 0
SUBSCRIPT_Y 1
SUBSCRIPT_SIZE 9
FIGURE_WIDTH 8
AVG_LOWERCASE_WIDTH 80
AVG_UPPERCASE_WIDTH 80
ENDPROPERTIES
CHARS 409
STARTCHAR uni000D
ENCODING 13
SWIDTH 144 0
DWIDTH 2 0
BBX 1 1 0 0
BITMAP
00
ENDCHAR
STARTCHAR space
ENCODING 32
SWIDTH 144 0
DWIDTH 2 0
BBX 1 1 0 0
BITMAP
00
ENDCHAR
STARTCHAR exclam
ENCODING 33
SWIDTH 424 0
DWIDTH 6 0
BBX 6 10 0 0
BITMAP
0500
7AD0
FAE0
FAF0
FAF0
FEF0
FAF0
FFF0
BFE0
2F80
ENDCHAR
STARTCHAR quotedbl
ENCODING 34
SWIDTH 424 0
DWIDTH 6 0
BBX 6 10 0 0
BITMAP
0500
75D0
F5E0
FFF0
FFF0
FFF0
FFF0
FFF0
BFE0
2F80
ENDCHAR
STARTCHAR numbersign
ENCODING 35
SWIDTH 482 0
DWIDTH 7 0
BBX 7 10 0 0
BITMAP
0540
7FF0
F578
F578
F6B8
F078
FAF8
FFF8
BFF4
2FE0
ENDCHAR
STARTCHAR dollar
ENCODING 36
SWIDTH 578 0
DWIDTH 8 0
BBX 8 10 0 0
BITMAP
0550
7EBD
F55F
F7BF
F91F
FB9F
F51F
FFBF
BFFE
2FF8
ENDCHAR
STARTCHAR percent
ENCODING 37
SWIDTH 578 0
DWIDTH 8 0
BBX 8 10 0 0
BITMAP
0550
6BBD
DA7F
D67F
FE9B
FD97
FEDB
FFFF
BFFE
2FF8
ENDCHAR
STARTCHAR ampersand
ENCODING 38
SWIDTH 578 0
DWIDTH 8 0
BBX 8 10 0 0
BITMAP
0550
7D6D
FAFF
F99B
F99B
FADB
F95F
FFFF
BFFE
2FF8
ENDCHAR
STARTCHAR quotesingle
ENCODING 39
SWIDTH 424 0
DWIDTH 6 0
BBX 6 10 0 0
BITMAP
0500
7AD0
FAE0
FFF0
FFF0
FFF0
FFF0
FFF0
BFE0
2F80
ENDCHAR
STARTCHAR parenleft
ENCODING 40
SWIDTH 483 0
DWIDTH 7 0
BBX 7 10 0 0
BITMAP
0540
79B0
F7F8
F7F8
F7F8
F7F8
F7F8
F9B8
BFF4
2FE0
ENDCHAR
STARTCHAR parenright
ENCODING 41
SWIDTH 483 0
DWIDTH 7 0
BBX 7 10 0 0
BITMAP
0540
79B0
FEB8
FEB8
FEB8
FEB8
FEB8
F9B8
BFF4
2FE0
ENDCHAR
STARTCHAR asterisk
ENCODING 42
SWIDTH 428 0
DWIDTH 6 0
BBX 6 10 0 0
BITMAP
0500
7A90
E470
F4B0
FBF0
FFF0
FFF0
FFF0
BFE0
2F80
ENDCHAR
STARTCHAR plus
ENCODING 43
SWIDTH 428 0
DWIDTH 6 0
BBX 6 10 0 0
BITMAP
0500
7AD0
E5B0
E5B0
FAF0
FFF0
FFF0
FFF0
BFE0
2F80
ENDCHAR
STARTCHAR comma
ENCODING 44
SWIDTH 428 0
DWIDTH 6 0
BBX 6 10 0 0
BITMAP
0500
7FD0
FFF0
FFF0
FFF0
FFF0
F9F0
FEF0
BFE0
2F80
ENDCHAR
STARTCHAR hyphen
ENCODING 45
SWIDTH 428 0
DWIDTH 6 0
BBX 6 10 0 0
BITMAP
0500
7FD0
FFF0
E5B0
FFF0
FFF0
FFF0
FFF0
BFE0
2F80
ENDCHAR
STARTCHAR period
ENCODING 46
SWIDTH 428 0
DWIDTH 6 0
BBX 6 10 0 0
BITMAP
0500
7FD0
FFF0
FFF0
FFF0
FFF0
FAF0
FFF0
BFE0
2F80
ENDCHAR
STARTCHAR slash
ENCODING 47
SWIDTH 428 0
DWIDTH 6 0
BBX 6 10 0 0
BITMAP
0500
7ED0
FDF0
FAF0
FAF0
F7F0
F7F0
FFF0
BFE0
2F80
ENDCHAR
STARTCHAR zero
ENCODING 48
SWIDTH 578 0
DWIDTH 8 0
BBX 8 10 0 0
BITMAP
0550
7959
F7EB
F7EB
F7EB
F7EB
F55B
FFFF
BFFE
2FF8
ENDCHAR
STARTCHAR one
ENCODING 49
SWIDTH 578 0
DWIDTH 8 0
BBX 8 10 0 0
BITMAP
0550
7DBD
FE7F
FF7F
FF7F
FF7F
FF7F
FFFF
BFFE
2FF8
ENDCHAR
STARTCHAR two
ENCODING 50
SWIDTH 578 0
DWIDTH 8 0
BBX 8 10 0 0
BITMAP
0550
795D
FBEB
FF9B
F56F
F7FF
F55F
FFFF
BFFE
2FF8
ENDCHAR
STARTCHAR three
ENCODING 51
SWIDTH 578 0
DWIDTH 8 0
BBX 8 10 0 0
BITMAP
0550
755D
FBDB
FE9B
FE9F
FBDB
F55F
FFFF
BFFE
2FF8
ENDCHAR
STARTCHAR four
ENCODING 52
SWIDTH 578 0
DWIDTH 8 0
BBX 8 10 0 0
BITMAP
0550
7BED
F6DF
F6DF
F69F
FD5B
FFDF
FFFF
BFFE
2FF8
ENDCHAR
STARTCHAR five
ENCODING 53
SWIDTH 578 0
DWIDTH 8 0
BBX 8 10 0 0
BITMAP
0550
795D
F7FF
F56F
FAAB
FFEB
F95B
FFFF
BFFE
2FF8
ENDCHAR
STARTCHAR six
ENCODING 54
SWIDTH 578 0
DWIDTH 8 0
BBX 8 10 0 0
BITMAP
0550
795D
F7FF
F55F
F6E7
F7F7
F95B
FFFF
BFFE
2FF8
ENDCHAR
STARTCHAR seven
ENCODING 55
SWIDTH 578 0
DWIDTH 8 0
BBX 8 10 0 0
BITMAP
0550
7D5D
FF9F
FF6F
FF7F
FE7F
FDBF
FFFF
BFFE
2FF8
ENDCHAR
STARTCHAR eight
ENCODING 56
SWIDTH 578 0
DWIDTH 8 0
BBX 8 10 0 0
BITMAP
0550
7959
F7EB
F69B
F69B
F7EB
F55B
FFFF
BFFE
2FF8
ENDCHAR
STARTCHAR nine
ENCODING 57
SWIDTH 578 0
DWIDTH 8 0
BBX 8 10 0 0
BITMAP
0550
795D
F7EB
F7EB
F95B
FFEB
F95F
FFFF
BFFE
2FF8
ENDCHAR
STARTCHAR colon
ENCODING 58
SWIDTH 428 0
DWIDTH 6 0
BBX 6 10 0 0
BITMAP
0500
7FD0
FFF0
FFF0
FAF0
FFF0
FAF0
FFF0
BFE0
2F80
ENDCHAR
STARTCHAR semicolon
ENCODING 59
SWIDTH 428 0
DWIDTH 6 0
BBX 6 10 0 0
BITMAP
0500
7FD0
FFF0
FFF0
F9F0
FFF0
F9F0
FEF0
BFE0
2F80
ENDCHAR
STARTCHAR less
ENCODING 60
SWIDTH 482 0
DWIDTH 7 0
BBX 7 11 0 0
BITMAP
1A40
7FF4
FFF8
FEF8
FAF8
F7F8
FAF8
FEF8
BFF8
7FE0
0540
ENDCHAR
STARTCHAR equal
ENCODING 61
SWIDTH 482 0
DWIDTH 7 0
BBX 7 11 0 0
BITMAP
1A80
7FF4
FFF8
FFF8
FAB8
FAB8
FAB8
FFF8
BFF8
7FE0
0540
ENDCHAR
STARTCHAR greater
ENCODING 62
SWIDTH 482 0
DWIDTH 7 0
BBX 7 11 0 0
BITMAP
1A80
7FF4
FFF8
FAF8
FEF8
FF78
FEB8
FAF8
BFF8
7FE0
0540
ENDCHAR
STARTCHAR question
ENCODING 63
SWIDTH 578 0
DWIDTH 8 0
BBX 8 10 0 0
BITMAP
0550
7D5D
FBEB
FFEB
FF5F
FFBF
FFBF
FFFF
BFFE
2FF8
ENDCHAR
STARTCHAR at
ENCODING 64
SWIDTH 578 0
DWIDTH 8 0
BBX 8 10 0 0
BITMAP
0550
7559
DAB7
DFDB
DD5B
D99B
DBE7
F9BF
BFFE
2FF8
ENDCHAR
STARTCHAR A
ENCODING 65
SWIDTH 578 0
DWIDTH 8 0
BBX 8 10 0 0
BITMAP
0550
795D
FADF
F7DF
F55B
F7EB
F7EB
FFFF
BFFE
2FF8
ENDCHAR
STARTCHAR B
ENCODING 66
SWIDTH 578 0
DWIDTH 8 0
BBX 8 10 0 0
BITMAP
0550
755D
F7DB
F69F
F69F
F7DB
F55F
FFFF
BFFE
2FF8
ENDCHAR
STARTCHAR C
ENCODING 67
SWIDTH 578 0
DWIDTH 8 0
BBX 8 10 0 0
BITMAP
0550
795D
F7FF
F7FF
F7FF
F7FF
F55F
FFFF
BFFE
2FF8
ENDCHAR
STARTCHAR D
ENCODING 68
SWIDTH 578 0
DWIDTH 8 0
BBX 8 10 0 0
BITMAP
0550
7559
F7E7
F7E7
F7E7
F7E7
F55B
FFFF
BFFE
2FF8
ENDCHAR
STARTCHAR E
ENCODING 69
SWIDTH 578 0
DWIDTH 8 0
BBX 8 10 0 0
BITMAP
0550
795D
FAFF
F9AF
F9AF
FAFF
F95F
FFFF
BFFE
2FF8
ENDCHAR
STARTCHAR F
ENCODING 70
SWIDTH 578 0
DWIDTH 8 0
BBX 8 10 0 0
BITMAP
0550
795D
FAFF
F9AF
F9AF
FAFF
FAFF
FFFF
BFFE
2FF8
ENDCHAR
STARTCHAR G
ENCODING 71
SWIDTH 578 0
DWIDTH 8 0
BBX 8 10 0 0
BITMAP
0550
795D
F7FF
F7FF
F797
F7E7
F95B
FFFF
BFFE
2FF8
ENDCHAR
STARTCHAR H
ENCODING 72
SWIDTH 578 0
DWIDTH 8 0
BBX 8 10 0 0
BITMAP
0550
77F9
F7E7
F6A7
F6A7
F7E7
F7EB
FFFF
BFFE
2FF8
ENDCHAR
STARTCHAR I
ENCODING 73
SWIDTH 578 0
DWIDTH 8 0
BBX 8 10 0 0
BITMAP
0550
7959
FF7F
FF7F
FF7F
FF7F
F91B
FFFF
BFFE
2FF8
ENDCHAR
STARTCHAR J
ENCODING 74
SWIDTH 578 0
DWIDTH 8 0
BBX 8 10 0 0
BITMAP
0550
7FAD
FFAF
FFAF
FFAF
FFAF
FD6F
FFFF
BFFE
2FF8
ENDCHAR
STARTCHAR K
ENCODING 75
SWIDTH 578 0
DWIDTH 8 0
BBX 8 10 0 0
BITMAP
0550
7EE5
F99F
F97F
F97F
F99F
FAEB
FFFF
BFFE
2FF8
ENDCHAR
STARTCHAR L
ENCODING 76
SWIDTH 578 0
DWIDTH 8 0
BBX 8 10 0 0
BITMAP
0550
7DFD
FDFF
FDFF
FDFF
FDFF
FD5F
FFFF
BFFE
2FF8
ENDCHAR
STARTCHAR M
ENCODING 77
SWIDTH 578 0
DWIDTH 8 0
BBX 8 10 0 0
BITMAP
0550
7559
EB77
EB77
EB77
EBF7
EBF7
FFFF
BFFE
2FF8
ENDCHAR
STARTCHAR N
ENCODING 78
SWIDTH 578 0
DWIDTH 8 0
BBX 8 10 0 0
BITMAP
0550
755D
F7EB
F7EB
F7EB
F7EB
F7EB
FFFF
BFFE
2FF8
ENDCHAR
STARTCHAR O
ENCODING 79
SWIDTH 578 0
DWIDTH 8 0
BBX 8 10 0 0
BITMAP
0550
7959
F7E7
F7E7
F7E7
F7E7
F95B
FFFF
BFFE
2FF8
ENDCHAR
STARTCHAR P
ENCODING 80
SWIDTH 578 0
DWIDTH 8 0
BBX 8 10 0 0
BITMAP
0550
795D
FAEB
FAEB
F95F
FAFF
FAFF
FFFF
BFFE
2FF8
ENDCHAR
STARTCHAR Q
ENCODING 81
SWIDTH 578 0
DWIDTH 8 0
BBX 8 10 0 0
BITMAP
0550
7959
F7E7
F7E7
F7E7
F7A7
F91B
FFDF
BFFE
2FF8
ENDCHAR
STARTCHAR R
ENCODING 82
SWIDTH 578 0
DWIDTH 8 0
BBX 8 10 0 0
BITMAP
0550
795D
F7DF
F6DF
F55F
F7DB
F7EF
FFFF
BFFE
2FF8
ENDCHAR
STARTCHAR S
ENCODING 83
SWIDTH 578 0
DWIDTH 8 0
BBX 8 10 0 0
BITMAP
0550
795D
F7FF
F6AF
FE9B
FFEB
F95B
FFFF
BFFE
2FF8
ENDCHAR
STARTCHAR T
ENCODING 84
SWIDTH 578 0
DWIDTH 8 0
BBX 8 10 0 0
BITMAP
0550
7959
FF7F
FF7F
FF7F
FF7F
FF7F
FFFF
BFFE
2FF8
ENDCHAR
STARTCHAR U
ENCODING 85
SWIDTH 578 0
DWIDTH 8 0
BBX 8 10 0 0
BITMAP
0550
77E9
F7EB
F7EB
F7EB
F7EB
F55B
FFFF
BFFE
2FF8
ENDCHAR
STARTCHAR V
ENCODING 86
SWIDTH 578 0
DWIDTH 8 0
BBX 8 10 0 0
BITMAP
0550
77E9
F6DB
FADF
FDDF
FDAF
FE7F
FFFF
BFFE
2FF8
ENDCHAR
STARTCHAR W
ENCODING 87
SWIDTH 578 0
DWIDTH 8 0
BBX 8 10 0 0
BITMAP
0550
6BB5
EA77
EA37
F567
F5A7
F59B
FFFF
BFFE
2FF8
ENDCHAR
STARTCHAR X
ENCODING 88
SWIDTH 578 0
DWIDTH 8 0
BBX 8 10 0 0
BITMAP
0550
7BE9
F9DF
FD6F
FE2F
FDDF
FBEB
FFFF
BFFE
2FF8
ENDCHAR
STARTCHAR Y
ENCODING 89
SWIDTH 578 0
DWIDTH 8 0
BBX 8 10 0 0
BITMAP
0550
7AE9
F9DF
FDAF
FE3F
FF7F
FF7F
FFFF
BFFE
2FF8
ENDCHAR
STARTCHAR Z
ENCODING 90
SWIDTH 578 0
DWIDTH 8 0
BBX 8 10 0 0
BITMAP
0550
795D
FF9F
FF7F
FEBF
FDFF
F95F
FFFF
BFFE
2FF8
ENDCHAR
STARTCHAR bracketleft
ENCODING 91
SWIDTH 484 0
DWIDTH 7 0
BBX 7 10 0 0
BITMAP
0540
7CF0
FDF8
FDF8
FDF8
FDF8
FDF8
FDF8
BFF4
2FE0
ENDCHAR
STARTCHAR backslash
ENCODING 92
SWIDTH 516 0
DWIDTH 7 0
BBX 8 10 0 0
BITMAP
0540
7DF4
FDFC
FDFD
FDBD
FEBD
FEBD
FFFD
BFFC
2FE4
ENDCHAR
STARTCHAR bracketright
ENCODING 93
SWIDTH 484 0
DWIDTH 7 0
BBX 7 10 0 0
BITMAP
0540
79F0
FDF8
FDF8
FDF8
FDF8
FDF8
FDF8
BFF4
2FE0
ENDCHAR
STARTCHAR asciicircum
ENCODING 94
SWIDTH 355 0
DWIDTH 5 0
BBX 5 6 0 3
BITMAP
0400
3F00
7740
AE80
FFC0
6640
ENDCHAR
STARTCHAR underscore
ENCODING 95
SWIDTH 428 0
DWIDTH 6 0
BBX 6 10 0 0
BITMAP
0500
7FD0
FFF0
FFF0
FFF0
FFF0
FFF0
E5B0
BFE0
2F80
ENDCHAR
STARTCHAR grave
ENCODING 96
SWIDTH 308 0
DWIDTH 4 0
BBX 5 5 0 0
BITMAP
6900
EA00
B700
7B40
2E00
ENDCHAR
STARTCHAR a
ENCODING 97
SWIDTH 578 0
DWIDTH 8 0
BBX 8 10 0 0
BITMAP
0550
795D
FFDF
FFDF
F54F
F7DF
F55F
FFFF
BFFE
2FF8
ENDCHAR
STARTCHAR b
ENCODING 98
SWIDTH 578 0
DWIDTH 8 0
BBX 8 10 0 0
BITMAP
0550
755D
F7DB
F69F
F69F
F7DB
F55F
FFFF
BFFE
2FF8
ENDCHAR
STARTCHAR c
ENCODING 99
SWIDTH 578 0
DWIDTH 8 0
BBX 8 10 0 0
BITMAP
0550
795D
F7FF
F7FF
F7FF
F7FF
F55F
FFFF
BFFE
2FF8
ENDCHAR
STARTCHAR d
ENCODING 100
SWIDTH 578 0
DWIDTH 8 0
BBX 8 10 0 0
BITMAP
0550
7559
F7E7
F7E7
F7E7
F7E7
F55B
FFFF
BFFE
2FF8
ENDCHAR
STARTCHAR e
ENCODING 101
SWIDTH 578 0
DWIDTH 8 0
BBX 8 10 0 0
BITMAP
0550
795D
F7DF
F14F
F7FF
F7FF
F96F
FFFF
BFFE
2FF8
ENDCHAR
STARTCHAR f
ENCODING 102
SWIDTH 578 0
DWIDTH 8 0
BBX 8 10 0 0
BITMAP
0550
795D
FAFF
F9AF
F9AF
FAFF
FAFF
FFFF
BFFE
2FF8
ENDCHAR
STARTCHAR g
ENCODING 103
SWIDTH 578 0
DWIDTH 8 0
BBX 8 10 0 0
BITMAP
0550
795D
F7FF
F7FF
F797
F7E7
F95B
FFFF
BFFE
2FF8
ENDCHAR
STARTCHAR h
ENCODING 104
SWIDTH 578 0
DWIDTH 8 0
BBX 8 10 0 0
BITMAP
0550
77F9
F7E7
F6A7
F6A7
F7E7
F7EB
FFFF
BFFE
2FF8
ENDCHAR
STARTCHAR i
ENCODING 105
SWIDTH 578 0
DWIDTH 8 0
BBX 8 10 0 0
BITMAP
0550
7959
FF7F
FF7F
FF7F
FF7F
F91B
FFFF
BFFE
2FF8
ENDCHAR
STARTCHAR j
ENCODING 106
SWIDTH 578 0
DWIDTH 8 0
BBX 8 10 0 0
BITMAP
0550
7FAD
FFAF
FFAF
FFAF
FFAF
FD6F
FFFF
BFFE
2FF8
ENDCHAR
STARTCHAR k
ENCODING 107
SWIDTH 578 0
DWIDTH 8 0
BBX 8 10 0 0
BITMAP
0550
7EE5
F99F
F97F
F97F
F99F
FAEB
FFFF
BFFE
2FF8
ENDCHAR
STARTCHAR l
ENCODING 108
SWIDTH 578 0
DWIDTH 8 0
BBX 8 10 0 0
BITMAP
0550
7DFD
FDFF
FDFF
FDFF
FDFF
FD5F
FFFF
BFFE
2FF8
ENDCHAR
STARTCHAR m
ENCODING 109
SWIDTH 578 0
DWIDTH 8 0
BBX 8 10 0 0
BITMAP
0550
7559
EB77
EB77
EB77
EBF7
EBF7
FFFF
BFFE
2FF8
ENDCHAR
STARTCHAR n
ENCODING 110
SWIDTH 578 0
DWIDTH 8 0
BBX 8 10 0 0
BITMAP
0550
755D
F7EB
F7EB
F7EB
F7EB
F7EB
FFFF
BFFE
2FF8
ENDCHAR
STARTCHAR o
ENCODING 111
SWIDTH 578 0
DWIDTH 8 0
BBX 8 10 0 0
BITMAP
0550
7959
F7E7
F7E7
F7E7
F7E7
F95B
FFFF
BFFE
2FF8
ENDCHAR
STARTCHAR p
ENCODING 112
SWIDTH 578 0
DWIDTH 8 0
BBX 8 10 0 0
BITMAP
0550
795D
FAEB
FAEB
F95F
FAFF
FAFF
FFFF
BFFE
2FF8
ENDCHAR
STARTCHAR q
ENCODING 113
SWIDTH 578 0
DWIDTH 8 0
BBX 8 10 0 0
BITMAP
0550
7959
F7E7
F7E7
F7E7
F7A7
F91B
FFDF
BFFE
2FF8
ENDCHAR
STARTCHAR r
ENCODING 114
SWIDTH 578 0
DWIDTH 8 0
BBX 8 10 0 0
BITMAP
0550
795D
F7DF
F6DF
F55F
F7DB
F7EF
FFFF
BFFE
2FF8
ENDCHAR
STARTCHAR s
ENCODING 115
SWIDTH 578 0
DWIDTH 8 0
BBX 8 10 0 0
BITMAP
0550
795D
F7FF
F6AF
FE9B
FFEB
F95B
FFFF
BFFE
2FF8
ENDCHAR
STARTCHAR t
ENCODING 116
SWIDTH 578 0
DWIDTH 8 0
BBX 8 10 0 0
BITMAP
0550
7959
FF7F
FF7F
FF7F
FF7F
FF7F
FFFF
BFFE
2FF8
ENDCHAR
STARTCHAR u
ENCODING 117
SWIDTH 578 0
DWIDTH 8 0
BBX 8 10 0 0
BITMAP
0550
77E9
F7EB
F7EB
F7EB
F7EB
F55B
FFFF
BFFE
2FF8
ENDCHAR
STARTCHAR v
ENCODING 118
SWIDTH 578 0
DWIDTH 8 0
BBX 8 10 0 0
BITMAP
0550
77E9
F6DB
FADF
FDDF
FDAF
FE7F
FFFF
BFFE
2FF8
ENDCHAR
STARTCHAR w
ENCODING 119
SWIDTH 578 0
DWIDTH 8 0
BBX 8 10 0 0
BITMAP
0550
6BB5
EA77
EA37
F567
F5A7
F59B
FFFF
BFFE
2FF8
ENDCHAR
STARTCHAR x
ENCODING 120
SWIDTH 578 0
DWIDTH 8 0
BBX 8 10 0 0
BITMAP
0550
7BE9
F9DF
FD6F
FE2F
FDDF
FBEB
FFFF
BFFE
2FF8
ENDCHAR
STARTCHAR y
ENCODING 121
SWIDTH 578 0
DWIDTH 8 0
BBX 8 10 0 0
BITMAP
0550
7AE9
F9DF
FDAF
FE3F
FF7F
FF7F
FFFF
BFFE
2FF8
ENDCHAR
STARTCHAR z
ENCODING 122
SWIDTH 578 0
DWIDTH 8 0
BBX 8 10 0 0
BITMAP
0550
795D
FF9F
FF7F
FEBF
FDFF
F95F
FFFF
BFFE
2FF8
ENDCHAR
STARTCHAR braceleft
ENCODING 123
SWIDTH 484 0
DWIDTH 7 0
BBX 7 10 0 0
BITMAP
0540
79B0
F6F8
F7F8
D3F8
F6F8
F6F8
FDB8
BFF4
2FE0
ENDCHAR
STARTCHAR bar
ENCODING 124
SWIDTH 484 0
DWIDTH 7 0
BBX 7 10 0 0
BITMAP
0440
7DF0
FDF8
FDF8
FDF8
FDF8
FDF8
FEF8
BFF4
2FE0
ENDCHAR
STARTCHAR braceright
ENCODING 125
SWIDTH 484 0
DWIDTH 7 0
BBX 7 10 0 0
BITMAP
0540
75F0
FEB8
FEB8
FE28
FEB8
FDB8
F9F8
BFF4
2FE0
ENDCHAR
STARTCHAR asciitilde
ENCODING 126
SWIDTH 578 0
DWIDTH 8 0
BBX 8 10 0 0
BITMAP
0550
7FFD
FFFF
F55F
FFFF
FFFF
FFFF
FFFF
BFFE
2FF8
ENDCHAR
STARTCHAR uni00A0
ENCODING 160
SWIDTH 151 0
DWIDTH 2 0
BBX 1 1 0 0
BITMAP
00
ENDCHAR
STARTCHAR exclamdown
ENCODING 161
SWIDTH 424 0
DWIDTH 6 0
BBX 6 10 0 0
BITMAP
0500
7AD0
FEE0
FAF0
FAF0
FAF0
FAF0
FFF0
BFE0
2F80
ENDCHAR
STARTCHAR cent
ENCODING 162
SWIDTH 578 0
DWIDTH 8 0
BBX 8 10 0 0
BITMAP
0550
7F7D
F92F
F67F
F67F
F67F
FD2F
FFBF
BFFE
2FF8
ENDCHAR
STARTCHAR sterling
ENCODING 163
SWIDTH 578 0
DWIDTH 8 0
BBX 8 10 0 0
BITMAP
0550
7D6D
FDDF
FDFF
F9AF
FDFF
FC5F
FFFF
BFFE
2FF8
ENDCHAR
STARTCHAR currency
ENCODING 164
SWIDTH 578 0
DWIDTH 8 0
BBX 8 10 0 0
BITMAP
0550
7AA9
F99F
FADF
FA9F
FA9B
FFFF
FFFF
BFFE
2FF8
ENDCHAR
STARTCHAR yen
ENCODING 165
SWIDTH 578 0
DWIDTH 8 0
BBX 8 10 0 0
BITMAP
0550
77DD
FADF
FD6F
FD3F
F82F
FEBF
FFFF
BFFE
2FF8
ENDCHAR
STARTCHAR brokenbar
ENCODING 166
SWIDTH 484 0
DWIDTH 7 0
BBX 7 10 0 0
BITMAP
0540
7DF0
FDF8
FEF8
FEF8
FDF8
FDF8
FFF8
BFF4
2FE0
ENDCHAR
STARTCHAR section
ENCODING 167
SWIDTH 578 0
DWIDTH 8 0
BBX 8 10 0 0
BITMAP
0550
795D
F7FF
F96F
FDAF
FE9F
FFDF
F96F
BFFE
2FF8
ENDCHAR
STARTCHAR dieresis
ENCODING 168
SWIDTH 388 0
DWIDTH 5 0
BBX 6 4 0 0
BITMAP
6F80
EED0
EDD0
6A80
ENDCHAR
STARTCHAR copyright
ENCODING 169
SWIDTH 578 0
DWIDTH 8 0
BBX 8 10 0 0
BITMAP
0550
796D
EA67
EEFA
EEFE
EDFA
EAA7
FEAF
BFFE
2FF8
ENDCHAR
STARTCHAR ordfeminine
ENCODING 170
SWIDTH 578 0
DWIDTH 8 0
BBX 8 10 0 0
BITMAP
0550
7D5D
FFDF
FD4F
FADF
F95F
FFFF
FFFF
BFFE
2FF8
ENDCHAR
STARTCHAR guillemotleft
ENCODING 171
SWIDTH 578 0
DWIDTH 8 0
BBX 8 10 0 0
BITMAP
0550
7FFD
FEEF
FA7F
F6BF
FA7F
FDEF
FFFF
BFFE
2FF8
ENDCHAR
STARTCHAR uni00AD
ENCODING 173
SWIDTH 428 0
DWIDTH 6 0
BBX 6 10 0 0
BITMAP
0500
7FD0
FFF0
E5B0
FFF0
FFF0
FFF0
FFF0
BFE0
2F80
ENDCHAR
STARTCHAR registered
ENCODING 174
SWIDTH 578 0
DWIDTH 8 0
BBX 8 10 0 0
BITMAP
0550
796D
E967
EEDA
ED6E
EEDA
EAE7
FEAF
BFFE
2FF8
ENDCHAR
STARTCHAR macron
ENCODING 175
SWIDTH 428 0
DWIDTH 6 0
BBX 6 4 0 0
BITMAP
6F90
FAF0
E5F0
7FD0
ENDCHAR
STARTCHAR degree
ENCODING 176
SWIDTH 428 0
DWIDTH 6 0
BBX 6 10 0 0
BITMAP
0500
75D0
EAB0
F5F0
FFF0
FFF0
FFF0
FFF0
BFE0
2F80
ENDCHAR
STARTCHAR plusminus
ENCODING 177
SWIDTH 428 0
DWIDTH 6 0
BBX 6 10 0 0
BITMAP
0500
7AD0
E5B0
E5B0
FAF0
E5B0
FFF0
FFF0
BFE0
2F80
ENDCHAR
STARTCHAR uni00B2
ENCODING 178
SWIDTH 578 0
DWIDTH 8 0
BBX 8 10 0 0
BITMAP
0550
7D6D
FE9F
F9BF
F96F
FFFF
FFFF
FFFF
BFFE
2FF8
ENDCHAR
STARTCHAR uni00B3
ENCODING 179
SWIDTH 578 0
DWIDTH 8 0
BBX 8 10 0 0
BITMAP
0550
7D5D
FE9F
FF9F
FD5F
FFFF
FFFF
FFFF
BFFE
2FF8
ENDCHAR
STARTCHAR acute
ENCODING 180
SWIDTH 308 0
DWIDTH 4 0
BBX 5 5 0 0
BITMAP
2900
7B40
AB00
EE00
B800
ENDCHAR
STARTCHAR uni00B5
ENCODING 181
SWIDTH 578 0
DWIDTH 8 0
BBX 8 10 0 0
BITMAP
0550
77E9
F7EB
F7EB
F7EB
F7EB
F15F
F7FF
BFFE
2FF8
ENDCHAR
STARTCHAR paragraph
ENCODING 182
SWIDTH 578 0
DWIDTH 8 0
BBX 8 10 0 0
BITMAP
0550
796D
F46F
F46F
FE6F
FFAF
FFAF
FFFF
BFFE
2FF8
ENDCHAR
STARTCHAR periodcentered
ENCODING 183
SWIDTH 428 0
DWIDTH 6 0
BBX 6 10 0 0
BITMAP
0500
7FD0
FFF0
FAF0
FFF0
FFF0
FFF0
FFF0
BFE0
2F80
ENDCHAR
STARTCHAR cedilla
ENCODING 184
SWIDTH 101 0
DWIDTH 1 0
BBX 2 2 0 -2
BITMAP
90
90
ENDCHAR
STARTCHAR uni00B9
ENCODING 185
SWIDTH 578 0
DWIDTH 8 0
BBX 8 10 0 0
BITMAP
0550
7DBD
FE7F
FF7F
FF7F
FFFF
FFFF
FFFF
BFFE
2FF8
ENDCHAR
STARTCHAR ordmasculine
ENCODING 186
SWIDTH 578 0
DWIDTH 8 0
BBX 8 10 0 0
BITMAP
0550
795D
FAEB
FAEB
FAEB
F95F
FFFF
FFFF
BFFE
2FF8
ENDCHAR
STARTCHAR guillemotright
ENCODING 187
SWIDTH 578 0
DWIDTH 8 0
BBX 8 10 0 0
BITMAP
0550
7FFD
FB7F
FDAF
FE9F
FDAF
FB7F
FFFF
BFFE
2FF8
ENDCHAR
STARTCHAR onequarter
ENCODING 188
SWIDTH 578 0
DWIDTH 8 0
BBX 8 10 0 0
BITMAP
0550
57BD
E6BF
F5BB
F577
FD67
FAE2
FFFB
BFFE
2FF8
ENDCHAR
STARTCHAR onehalf
ENCODING 189
SWIDTH 578 0
DWIDTH 8 0
BBX 8 10 0 0
BITMAP
0550
57BD
E6BF
F597
F5A6
FD9B
FA97
FFFF
BFFE
2FF8
ENDCHAR
STARTCHAR threequarters
ENCODING 190
SWIDTH 578 0
DWIDTH 8 0
BBX 8 10 0 0
BITMAP
0550
57BD
E6BF
F596
F5A9
FDE9
FA96
FFFF
BFFE
2FF8
ENDCHAR
STARTCHAR questiondown
ENCODING 191
SWIDTH 578 0
DWIDTH 8 0
BBX 8 10 0 0
BITMAP
0550
7F7D
FFBF
FD7F
FAFF
FBFF
F95F
FFFF
BFFE
2FF8
ENDCHAR
STARTCHAR Agrave
ENCODING 192
SWIDTH 578 0
DWIDTH 8 0
BBX 8 14 0 0
BITMAP
0A40
2EC0
1DD0
0EE0
0BE0
795D
FADF
F7DF
F55B
F7EB
F7EB
FFFF
BFFE
2FF8
ENDCHAR
STARTCHAR Aacute
ENCODING 193
SWIDTH 578 0
DWIDTH 8 0
BBX 8 14 0 0
BITMAP
01A0
03B8
0778
07B0
07E0
795D
FADF
F7DF
F55B
F7EB
F7EB
FFFF
BFFE
2FF8
ENDCHAR
STARTCHAR Acircumflex
ENCODING 194
SWIDTH 578 0
DWIDTH 8 0
BBX 8 14 0 0
BITMAP
02D0
0BB0
0EB4
1EE8
0FF4
795D
FADF
F7DF
F55B
F7EB
F7EB
FFFF
BFFE
2FF8
ENDCHAR
STARTCHAR Atilde
ENCODING 195
SWIDTH 578 0
DWIDTH 8 0
BBX 8 14 0 0
BITMAP
0150
0FF8
2FFC
295D
1FFC
795D
FADF
F7DF
F55B
F7EB
F7EB
FFFF
BFFE
2FF8
ENDCHAR
STARTCHAR Adieresis
ENCODING 196
SWIDTH 578 0
DWIDTH 8 0
BBX 8 13 0 0
BITMAP
0BE4
1EFC
1EAC
0FF4
795D
FADF
F7DF
F55B
F7EB
F7EB
FFFF
BFFE
2FF8
ENDCHAR
STARTCHAR Aring
ENCODING 197
SWIDTH 578 0
DWIDTH 8 0
BBX 8 14 0 0
BITMAP
0140
0BF0
1D68
1D68
1FF8
795D
FADF
F7DF
F55B
F7EB
F7EB
FFFF
BFFE
2FF8
ENDCHAR
STARTCHAR AE
ENCODING 198
SWIDTH 578 0
DWIDTH 8 0
BBX 8 10 0 0
BITMAP
0550
7959
F77F
F76F
F76B
F17F
EB5B
FFFF
BFFE
2FF8
ENDCHAR
STARTCHAR Ccedilla
ENCODING 199
SWIDTH 578 0
DWIDTH 8 0
BBX 8 10 0 0
BITMAP
0550
795D
F7FF
F7FF
F7FF
F7FF
F55F
FDBF
BDBE
2FF8
ENDCHAR
STARTCHAR Egrave
ENCODING 200
SWIDTH 578 0
DWIDTH 8 0
BBX 8 14 0 0
BITMAP
0A40
2ED0
1DE0
0BA0
07E0
795D
FAFF
F9AF
F9AF
FAFF
F95F
FFFF
BFFE
2FF8
ENDCHAR
STARTCHAR Eacute
ENCODING 201
SWIDTH 578 0
DWIDTH 8 0
BBX 8 14 0 0
BITMAP
01A4
02AC
0378
07B4
07E0
795D
FAFF
F9AF
F9AF
FAFF
F95F
FFFF
BFFE
2FF8
ENDCHAR
STARTCHAR Ecircumflex
ENCODING 202
SWIDTH 578 0
DWIDTH 8 0
BBX 8 14 0 0
BITMAP
02E0
07B0
0EB8
0EEC
0FF8
795D
FAFF
F9AF
F9AF
FAFF
F95F
FFFF
BFFE
2FF8
ENDCHAR
STARTCHAR Edieresis
ENCODING 203
SWIDTH 578 0
DWIDTH 8 0
BBX 8 13 0 0
BITMAP
07E4
1EEC
1DEC
0BF4
795D
FAFF
F9AF
F9AF
FAFF
F95F
FFFF
BFFE
2FF8
ENDCHAR
STARTCHAR Igrave
ENCODING 204
SWIDTH 578 0
DWIDTH 8 0
BBX 8 14 0 0
BITMAP
0640
1ED0
1DE0
0BA0
07E0
7959
FF7F
FF7F
FF7F
FF7F
F91B
FFFF
BFFE
2FF8
ENDCHAR
STARTCHAR Iacute
ENCODING 205
SWIDTH 578 0
DWIDTH 8 0
BBX 8 14 0 0
BITMAP
00A4
02AC
0378
07B4
07F0
7959
FF7F
FF7F
FF7F
FF7F
F91B
FFFF
BFFE
2FF8
ENDCHAR
STARTCHAR Icircumflex
ENCODING 206
SWIDTH 578 0
DWIDTH 8 0
BBX 8 14 0 0
BITMAP
02E0
0774
0AA8
0EEC
0FF8
7959
FF7F
FF7F
FF7F
FF7F
F91B
FFFF
BFFE
2FF8
ENDCHAR
STARTCHAR Idieresis
ENCODING 207
SWIDTH 578 0
DWIDTH 8 0
BBX 8 13 0 0
BITMAP
07F4
0EEC
1DEC
0BF8
7959
FF7F
FF7F
FF7F
FF7F
F91B
FFFF
BFFE
2FF8
ENDCHAR
STARTCHAR Eth
ENCODING 208
SWIDTH 578 0
DWIDTH 8 0
BBX 8 10 0 0
BITMAP
0550
7559
F7E7
F7E7
F7E7
F7E7
F55B
FFFF
BFFE
2FF8
ENDCHAR
STARTCHAR Ntilde
ENCODING 209
SWIDTH 578 0
DWIDTH 8 0
BBX 8 14 0 0
BITMAP
0150
1FF4
2FFC
296C
1FF8
755D
F7EB
F7EB
F7EB
F7EB
F7EB
FFFF
BFFE
2FF8
ENDCHAR
STARTCHAR Ograve
ENCODING 210
SWIDTH 578 0
DWIDTH 8 0
BBX 8 14 0 0
BITMAP
0A40
2ED0
1DD0
0AA0
07E0
7959
F7E7
F7E7
F7E7
F7E7
F95B
FFFF
BFFE
2FF8
ENDCHAR
STARTCHAR Oacute
ENCODING 211
SWIDTH 578 0
DWIDTH 8 0
BBX 8 14 0 0
BITMAP
01A4
02AC
0378
07B0
07E0
7959
F7E7
F7E7
F7E7
F7E7
F95B
FFFF
BFFE
2FF8
ENDCHAR
STARTCHAR Ocircumflex
ENCODING 212
SWIDTH 578 0
DWIDTH 8 0
BBX 8 14 0 0
BITMAP
02E0
07B0
0EB8
0EE8
0FF8
7959
F7E7
F7E7
F7E7
F7E7
F95B
FFFF
BFFE
2FF8
ENDCHAR
STARTCHAR Otilde
ENCODING 213
SWIDTH 578 0
DWIDTH 8 0
BBX 8 14 0 0
BITMAP
0150
0FF8
2FFD
2D5D
1FFC
7959
F7E7
F7E7
F7E7
F7E7
F95B
FFFF
BFFE
2FF8
ENDCHAR
STARTCHAR Odieresis
ENCODING 214
SWIDTH 578 0
DWIDTH 8 0
BBX 8 13 0 0
BITMAP
07E4
1EEC
1EEC
0FF4
7959
F7E7
F7E7
F7E7
F7E7
F95B
FFFF
BFFE
2FF8
ENDCHAR
STARTCHAR multiply
ENCODING 215
SWIDTH 578 0
DWIDTH 8 0
BBX 8 10 0 0
BITMAP
0550
7FFD
FFFF
FD6F
FD6F
FFFF
FFFF
FFFF
BFFE
2FF8
ENDCHAR
STARTCHAR Oslash
ENCODING 216
SWIDTH 578 0
DWIDTH 8 0
BBX 8 10 0 0
BITMAP
0550
7959
F7CB
F76B
F6AB
F5EB
F55B
FFFF
BFFE
2FF8
ENDCHAR
STARTCHAR Ugrave
ENCODING 217
SWIDTH 578 0
DWIDTH 8 0
BBX 8 14 0 0
BITMAP
0A40
2ED0
1DE0
0BA0
07E0
77E9
F7EB
F7EB
F7EB
F7EB
F55B
FFFF
BFFE
2FF8
ENDCHAR
STARTCHAR Uacute
ENCODING 218
SWIDTH 578 0
DWIDTH 8 0
BBX 8 14 0 0
BITMAP
01A4
02AC
0378
07B4
07E0
77E9
F7EB
F7EB
F7EB
F7EB
F55B
FFFF
BFFE
2FF8
ENDCHAR
STARTCHAR Ucircumflex
ENCODING 219
SWIDTH 578 0
DWIDTH 8 0
BBX 8 14 0 0
BITMAP
02E0
07B0
0EB8
0EEC
0FF8
77E9
F7EB
F7EB
F7EB
F7EB
F55B
FFFF
BFFE
2FF8
ENDCHAR
STARTCHAR Udieresis
ENCODING 220
SWIDTH 578 0
DWIDTH 8 0
BBX 8 13 0 0
BITMAP
07E4
1EEC
1DEC
0BF4
77E9
F7EB
F7EB
F7EB
F7EB
F55B
FFFF
BFFE
2FF8
ENDCHAR
STARTCHAR Yacute
ENCODING 221
SWIDTH 578 0
DWIDTH 8 0
BBX 8 14 0 0
BITMAP
01A4
02AC
0378
07B0
07E0
7AE9
F9DF
FDAF
FE3F
FF7F
FF7F
FFFF
BFFE
2FF8
ENDCHAR
STARTCHAR Thorn
ENCODING 222
SWIDTH 578 0
DWIDTH 8 0
BBX 8 10 0 0
BITMAP
0550
7AFD
F95F
FAEB
F99B
F9AF
FAFF
FFFF
BFFE
2FF8
ENDCHAR
STARTCHAR germandbls
ENCODING 223
SWIDTH 578 0
DWIDTH 8 0
BBX 8 10 0 0
BITMAP
0550
795D
F7DF
F79F
F7EB
F7EB
F65B
FFFF
BFFE
2FF8
ENDCHAR
STARTCHAR agrave
ENCODING 224
SWIDTH 578 0
DWIDTH 8 0
BBX 8 14 0 0
BITMAP
0A40
2ED0
1DD0
0AA0
07E0
795D
FFDF
FFDF
F54F
F7DF
F55F
FFFF
BFFE
2FF8
ENDCHAR
STARTCHAR aacute
ENCODING 225
SWIDTH 578 0
DWIDTH 8 0
BBX 8 14 0 0
BITMAP
01A4
02AC
0378
07B4
07E0
795D
FFDF
FFDF
F54F
F7DF
F55F
FFFF
BFFE
2FF8
ENDCHAR
STARTCHAR acircumflex
ENCODING 226
SWIDTH 578 0
DWIDTH 8 0
BBX 8 14 0 0
BITMAP
02E0
07B0
0EB8
0EE8
0FF8
795D
FFDF
FFDF
F54F
F7DF
F55F
FFFF
BFFE
2FF8
ENDCHAR
STARTCHAR atilde
ENCODING 227
SWIDTH 578 0
DWIDTH 8 0
BBX 8 14 0 0
BITMAP
0150
0FF8
2FFD
2D5D
1FFC
795D
FFDF
FFDF
F54F
F7DF
F55F
FFFF
BFFE
2FF8
ENDCHAR
STARTCHAR adieresis
ENCODING 228
SWIDTH 578 0
DWIDTH 8 0
BBX 8 13 0 0
BITMAP
07E4
1EEC
1DEC
0FF4
795D
FFDF
FFDF
F54F
F7DF
F55F
FFFF
BFFE
2FF8
ENDCHAR
STARTCHAR aring
ENCODING 229
SWIDTH 578 0
DWIDTH 8 0
BBX 8 14 0 0
BITMAP
0140
0BF4
0D68
1D6C
0FF8
795D
FFDF
FFDF
F54F
F7DF
F55F
FFFF
BFFE
2FF8
ENDCHAR
STARTCHAR ae
ENCODING 230
SWIDTH 578 0
DWIDTH 8 0
BBX 8 10 0 0
BITMAP
0550
7959
F77F
F76F
F76B
F17F
EB5B
FFFF
BFFE
2FF8
ENDCHAR
STARTCHAR ccedilla
ENCODING 231
SWIDTH 578 0
DWIDTH 8 0
BBX 8 10 0 0
BITMAP
0550
795D
F7FF
F7FF
F7FF
F7FF
F55F
FDBF
BDBE
2FF8
ENDCHAR
STARTCHAR egrave
ENCODING 232
SWIDTH 578 0
DWIDTH 8 0
BBX 8 14 0 0
BITMAP
0A40
2EC0
1DD0
0AA0
07E0
795D
F7DF
F14F
F7FF
F7FF
F96F
FFFF
BFFE
2FF8
ENDCHAR
STARTCHAR eacute
ENCODING 233
SWIDTH 578 0
DWIDTH 8 0
BBX 8 14 0 0
BITMAP
01A0
03B8
0778
0BB0
07E0
795D
F7DF
F14F
F7FF
F7FF
F96F
FFFF
BFFE
2FF8
ENDCHAR
STARTCHAR ecircumflex
ENCODING 234
SWIDTH 578 0
DWIDTH 8 0
BBX 8 14 0 0
BITMAP
07D0
0AB0
0EB4
1EB8
1FF4
795D
F7DF
F14F
F7FF
F7FF
F96F
FFFF
BFFE
2FF8
ENDCHAR
STARTCHAR edieresis
ENCODING 235
SWIDTH 578 0
DWIDTH 8 0
BBX 8 13 0 0
BITMAP
0BE0
2FB8
2AA8
1FF4
795D
F7DF
F14F
F7FF
F7FF
F96F
FFFF
BFFE
2FF8
ENDCHAR
STARTCHAR igrave
ENCODING 236
SWIDTH 578 0
DWIDTH 8 0
BBX 8 14 0 0
BITMAP
0A40
1ED0
1DE0
0BA0
07E0
7959
FF7F
FF7F
FF7F
FF7F
F91B
FFFF
BFFE
2FF8
ENDCHAR
STARTCHAR iacute
ENCODING 237
SWIDTH 578 0
DWIDTH 8 0
BBX 8 14 0 0
BITMAP
01A4
02AC
0378
07B4
07F0
7959
FF7F
FF7F
FF7F
FF7F
F91B
FFFF
BFFE
2FF8
ENDCHAR
STARTCHAR icircumflex
ENCODING 238
SWIDTH 578 0
DWIDTH 8 0
BBX 8 14 0 0
BITMAP
02E0
07B4
0AB8
0EEC
0FF8
7959
FF7F
FF7F
FF7F
FF7F
F91B
FFFF
BFFE
2FF8
ENDCHAR
STARTCHAR idieresis
ENCODING 239
SWIDTH 578 0
DWIDTH 8 0
BBX 8 13 0 0
BITMAP
07E4
1EEC
1DEC
0BF4
7959
FF7F
FF7F
FF7F
FF7F
F91B
FFFF
BFFE
2FF8
ENDCHAR
STARTCHAR eth
ENCODING 240
SWIDTH 578 0
DWIDTH 8 0
BBX 8 10 0 0
BITMAP
0550
7559
F7E7
F7E7
F7E7
F7E7
F55B
FFFF
BFFE
2FF8
ENDCHAR
STARTCHAR ntilde
ENCODING 241
SWIDTH 578 0
DWIDTH 8 0
BBX 8 14 0 0
BITMAP
0150
1FF4
2FFC
296C
1FF8
755D
F7EB
F7EB
F7EB
F7EB
F7EB
FFFF
BFFE
2FF8
ENDCHAR
STARTCHAR oacute
ENCODING 243
SWIDTH 578 0
DWIDTH 8 0
BBX 8 14 0 0
BITMAP
01A0
03B8
0778
07B0
07E0
7959
F7E7
F7E7
F7E7
F7E7
F95B
FFFF
BFFE
2FF8
ENDCHAR
STARTCHAR ocircumflex
ENCODING 244
SWIDTH 578 0
DWIDTH 8 0
BBX 8 14 0 0
BITMAP
02E0
07B0
0EB8
0EE8
0FF8
7959
F7E7
F7E7
F7E7
F7E7
F95B
FFFF
BFFE
2FF8
ENDCHAR
STARTCHAR otilde
ENCODING 245
SWIDTH 578 0
DWIDTH 8 0
BBX 8 14 0 0
BITMAP
0150
0FF8
2FFD
295D
1FFC
7959
F7E7
F7E7
F7E7
F7E7
F95B
FFFF
BFFE
2FF8
ENDCHAR
STARTCHAR odieresis
ENCODING 246
SWIDTH 578 0
DWIDTH 8 0
BBX 8 13 0 0
BITMAP
07E4
1EEC
1DEC
0BF4
7959
F7E7
F7E7
F7E7
F7E7
F95B
FFFF
BFFE
2FF8
ENDCHAR
STARTCHAR divide
ENCODING 247
SWIDTH 428 0
DWIDTH 6 0
BBX 6 10 0 0
BITMAP
0500
7FD0
FAF0
E5B0
FAF0
FFF0
FFF0
FFF0
BFE0
2F80
ENDCHAR
STARTCHAR oslash
ENCODING 248
SWIDTH 578 0
DWIDTH 8 0
BBX 8 10 0 0
BITMAP
0550
7959
F7CB
F76B
F6AB
F5EB
F55B
FFFF
BFFE
2FF8
ENDCHAR
STARTCHAR ugrave
ENCODING 249
SWIDTH 578 0
DWIDTH 8 0
BBX 8 14 0 0
BITMAP
0A40
1ED0
1DE0
0BA0
07E0
77E9
F7EB
F7EB
F7EB
F7EB
F55B
FFFF
BFFE
2FF8
ENDCHAR
STARTCHAR uacute
ENCODING 250
SWIDTH 578 0
DWIDTH 8 0
BBX 8 14 0 0
BITMAP
01A4
02AC
0378
07B4
07F0
77E9
F7EB
F7EB
F7EB
F7EB
F55B
FFFF
BFFE
2FF8
ENDCHAR
STARTCHAR ucircumflex
ENCODING 251
SWIDTH 578 0
DWIDTH 8 0
BBX 8 14 0 0
BITMAP
02E0
07B4
0AB8
0EEC
0FF8
77E9
F7EB
F7EB
F7EB
F7EB
F55B
FFFF
BFFE
2FF8
ENDCHAR
STARTCHAR udieresis
ENCODING 252
SWIDTH 578 0
DWIDTH 8 0
BBX 8 13 0 0
BITMAP
07E4
1EEC
1DEC
0BF4
77E9
F7EB
F7EB
F7EB
F7EB
F55B
FFFF
BFFE
2FF8
ENDCHAR
STARTCHAR yacute
ENCODING 253
SWIDTH 578 0
DWIDTH 8 0
BBX 8 14 0 0
BITMAP
01A4
02AC
0378
07B0
07E0
7AE9
F9DF
FDAF
FE3F
FF7F
FF7F
FFFF
BFFE
2FF8
ENDCHAR
STARTCHAR thorn
ENCODING 254
SWIDTH 578 0
DWIDTH 8 0
BBX 8 10 0 0
BITMAP
0550
7AFD
F95F
FAEB
F99B
F9AF
FAFF
FFFF
BFFE
2FF8
ENDCHAR
STARTCHAR ydieresis
ENCODING 255
SWIDTH 578 0
DWIDTH 8 0
BBX 8 13 0 0
BITMAP
07E4
1EEC
1DEC
0FF4
7AE9
F9DF
FDAF
FE3F
FF7F
FF7F
FFFF
BFFE
2FF8
ENDCHAR
STARTCHAR Amacron
ENCODING 256
SWIDTH 578 0
DWIDTH 8 0
BBX 8 13 0 0
BITMAP
0BF4
2EBC
2D6D
1FF8
795D
FADF
F7DF
F55B
F7EB
F7EB
FFFF
BFFE
2FF8
ENDCHAR
STARTCHAR amacron
ENCODING 257
SWIDTH 578 0
DWIDTH 8 0
BBX 8 13 0 0
BITMAP
0BF4
1EBD
2D6D
1FFC
795D
FFDF
FFDF
F54F
F7DF
F55F
FFFF
BFFE
2FF8
ENDCHAR
STARTCHAR Abreve
ENCODING 258
SWIDTH 578 0
DWIDTH 8 0
BBX 8 13 0 0
BITMAP
0BF4
2FFC
2D6D
1FF8
795D
FADF
F7DF
F55B
F7EB
F7EB
FFFF
BFFE
2FF8
ENDCHAR
STARTCHAR abreve
ENCODING 259
SWIDTH 578 0
DWIDTH 8 0
BBX 8 13 0 0
BITMAP
0BF4
1FFD
2D5D
1FFC
795D
FFDF
FFDF
F54F
F7DF
F55F
FFFF
BFFE
2FF8
ENDCHAR
STARTCHAR Aogonek
ENCODING 260
SWIDTH 578 0
DWIDTH 8 0
BBX 8 10 0 0
BITMAP
0550
795D
FADF
F7DF
F55B
F7EB
F7EB
FFDF
BFDA
2FF8
ENDCHAR
STARTCHAR aogonek
ENCODING 261
SWIDTH 578 0
DWIDTH 8 0
BBX 8 10 0 0
BITMAP
0550
795D
FFDF
FFDF
F54F
F7DF
F55F
FEBF
BDBE
2FF8
ENDCHAR
STARTCHAR Cacute
ENCODING 262
SWIDTH 578 0
DWIDTH 8 0
BBX 8 14 0 0
BITMAP
00A4
02AC
0378
07B4
07F0
795D
F7FF
F7FF
F7FF
F7FF
F55F
FFFF
BFFE
2FF8
ENDCHAR
STARTCHAR cacute
ENCODING 263
SWIDTH 578 0
DWIDTH 8 0
BBX 8 14 0 0
BITMAP
01A4
02AC
0378
07B4
07E0
795D
F7FF
F7FF
F7FF
F7FF
F55F
FFFF
BFFE
2FF8
ENDCHAR
STARTCHAR Ccircumflex
ENCODING 264
SWIDTH 578 0
DWIDTH 8 0
BBX 8 14 0 0
BITMAP
02D0
0BB0
0EB4
1EE8
0FF4
795D
F7FF
F7FF
F7FF
F7FF
F55F
FFFF
BFFE
2FF8
ENDCHAR
STARTCHAR ccircumflex
ENCODING 265
SWIDTH 578 0
DWIDTH 8 0
BBX 8 14 0 0
BITMAP
02D0
0BB0
0EB4
1EE8
0FF4
795D
F7FF
F7FF
F7FF
F7FF
F55F
FFFF
BFFE
2FF8
ENDCHAR
STARTCHAR Cdotaccent
ENCODING 266
SWIDTH 578 0
DWIDTH 8 0
BBX 8 13 0 0
BITMAP
1BE0
3FF8
3EBC
2FF8
795D
F7FF
F7FF
F7FF
F7FF
F55F
FFFF
BFFE
2FF8
ENDCHAR
STARTCHAR cdotaccent
ENCODING 267
SWIDTH 578 0
DWIDTH 8 0
BBX 8 13 0 0
BITMAP
0BE4
2FFC
3EBC
2FF8
795D
F7FF
F7FF
F7FF
F7FF
F55F
FFFF
BFFE
2FF8
ENDCHAR
STARTCHAR Ccaron
ENCODING 268
SWIDTH 578 0
DWIDTH 8 0
BBX 8 14 0 0
BITMAP
0550
2FB4
1EB4
1EB0
0FF0
795D
F7FF
F7FF
F7FF
F7FF
F55F
FFFF
BFFE
2FF8
ENDCHAR
STARTCHAR ccaron
ENCODING 269
SWIDTH 578 0
DWIDTH 8 0
BBX 8 14 0 0
BITMAP
0560
1EF8
1EB8
0EB4
0BF0
795D
F7FF
F7FF
F7FF
F7FF
F55F
FFFF
BFFE
2FF8
ENDCHAR
STARTCHAR Dcaron
ENCODING 270
SWIDTH 578 0
DWIDTH 8 0
BBX 8 14 0 0
BITMAP
0560
1EF8
1EB4
0EB4
0FF0
7559
F7E7
F7E7
F7E7
F7E7
F55B
FFFF
BFFE
2FF8
ENDCHAR
STARTCHAR dcaron
ENCODING 271
SWIDTH 578 0
DWIDTH 8 0
BBX 8 10 0 0
BITMAP
0550
6565
EBD7
EBDF
EBDF
EBDF
E56F
FFFF
BFFE
2FF8
ENDCHAR
STARTCHAR Dcroat
ENCODING 272
SWIDTH 578 0
DWIDTH 8 0
BBX 8 10 0 0
BITMAP
0550
7559
F7E7
E2E7
F6E7
F7E7
F55B
FFFF
BFFE
2FF8
ENDCHAR
STARTCHAR dcroat
ENCODING 273
SWIDTH 578 0
DWIDTH 8 0
BBX 8 10 0 0
BITMAP
0550
7559
F7E7
E2E7
F6E7
F7E7
F55B
FFFF
BFFE
2FF8
ENDCHAR
STARTCHAR Emacron
ENCODING 274
SWIDTH 578 0
DWIDTH 8 0
BBX 8 13 0 0
BITMAP
0BF4
1EBD
2D6D
1FFC
795D
FAFF
F9AF
F9AF
FAFF
F95F
FFFF
BFFE
2FF8
ENDCHAR
STARTCHAR emacron
ENCODING 275
SWIDTH 578 0
DWIDTH 8 0
BBX 8 13 0 0
BITMAP
0BE4
2EBC
397C
1FF8
795D
F7DF
F14F
F7FF
F7FF
F96F
FFFF
BFFE
2FF8
ENDCHAR
STARTCHAR Ebreve
ENCODING 276
SWIDTH 578 0
DWIDTH 8 0
BBX 8 13 0 0
BITMAP
0BF4
1FFD
2D5D
1FFC
795D
FAFF
F9AF
F9AF
FAFF
F95F
FFFF
BFFE
2FF8
ENDCHAR
STARTCHAR ebreve
ENCODING 277
SWIDTH 578 0
DWIDTH 8 0
BBX 8 13 0 0
BITMAP
0BE4
2FFC
3D6C
1FF8
795D
F7DF
F14F
F7FF
F7FF
F96F
FFFF
BFFE
2FF8
ENDCHAR
STARTCHAR Edotaccent
ENCODING 278
SWIDTH 578 0
DWIDTH 8 0
BBX 8 13 0 0
BITMAP
0BF4
1FFD
2F7D
1FFC
795D
FAFF
F9AF
F9AF
FAFF
F95F
FFFF
BFFE
2FF8
ENDCHAR
STARTCHAR edotaccent
ENCODING 279
SWIDTH 578 0
DWIDTH 8 0
BBX 8 13 0 0
BITMAP
0BE4
2FFC
3EBC
2FF8
795D
F7DF
F14F
F7FF
F7FF
F96F
FFFF
BFFE
2FF8
ENDCHAR
STARTCHAR Eogonek
ENCODING 280
SWIDTH 578 0
DWIDTH 8 0
BBX 8 10 0 0
BITMAP
0550
795D
FAFF
F9AF
F9AF
FAFF
F95F
FFDF
BF9E
2FF8
ENDCHAR
STARTCHAR eogonek
ENCODING 281
SWIDTH 578 0
DWIDTH 8 0
BBX 8 10 0 0
BITMAP
0550
795D
F7DF
F14F
F7FF
F7FF
F92F
FEBF
BF7E
2FF8
ENDCHAR
STARTCHAR Ecaron
ENCODING 282
SWIDTH 578 0
DWIDTH 8 0
BBX 8 14 0 0
BITMAP
0664
0EEC
0EAC
0B78
0BF4
795D
FAFF
F9AF
F9AF
FAFF
F95F
FFFF
BFFE
2FF8
ENDCHAR
STARTCHAR ecaron
ENCODING 283
SWIDTH 578 0
DWIDTH 8 0
BBX 8 14 0 0
BITMAP
0560
1EF8
1EB4
0EB4
0FF0
795D
F7DF
F14F
F7FF
F7FF
F96F
FFFF
BFFE
2FF8
ENDCHAR
STARTCHAR Gcircumflex
ENCODING 284
SWIDTH 578 0
DWIDTH 8 0
BBX 8 14 0 0
BITMAP
02D0
0BB0
0EB4
1EA8
1FF4
795D
F7FF
F7FF
F797
F7E7
F95B
FFFF
BFFE
2FF8
ENDCHAR
STARTCHAR gcircumflex
ENCODING 285
SWIDTH 578 0
DWIDTH 8 0
BBX 8 14 0 0
BITMAP
02D0
0BB0
0EB4
1EA8
1FF4
795D
F7FF
F7FF
F797
F7E7
F95B
FFFF
BFFE
2FF8
ENDCHAR
STARTCHAR Gbreve
ENCODING 286
SWIDTH 578 0
DWIDTH 8 0
BBX 8 13 0 0
BITMAP
0BF4
2FFC
2D6C
1FF8
795D
F7FF
F7FF
F797
F7E7
F95B
FFFF
BFFE
2FF8
ENDCHAR
STARTCHAR gbreve
ENCODING 287
SWIDTH 578 0
DWIDTH 8 0
BBX 8 13 0 0
BITMAP
0BE4
2FFC
3D6C
1FF8
795D
F7FF
F7FF
F797
F7E7
F95B
FFFF
BFFE
2FF8
ENDCHAR
STARTCHAR Gdotaccent
ENCODING 288
SWIDTH 578 0
DWIDTH 8 0
BBX 8 13 0 0
BITMAP
0BE4
2FFC
3EBC
2FF8
795D
F7FF
F7FF
F797
F7E7
F95B
FFFF
BFFE
2FF8
ENDCHAR
STARTCHAR gdotaccent
ENCODING 289
SWIDTH 578 0
DWIDTH 8 0
BBX 8 13 0 0
BITMAP
0BE4
2FFC
3EBC
2FF8
795D
F7FF
F7FF
F797
F7E7
F95B
FFFF
BFFE
2FF8
ENDCHAR
STARTCHAR Gcommaaccent
ENCODING 290
SWIDTH 578 0
DWIDTH 8 0
BBX 8 10 0 0
BITMAP
0550
795D
F7FF
F7FF
F797
F7E7
F95B
FF7F
BF7E
2FF8
ENDCHAR
STARTCHAR gcommaaccent
ENCODING 291
SWIDTH 578 0
DWIDTH 8 0
BBX 8 10 0 0
BITMAP
0550
795D
F7FF
F7FF
F797
F7E7
F95B
FF7F
BF7E
2FF8
ENDCHAR
STARTCHAR Hcircumflex
ENCODING 292
SWIDTH 578 0
DWIDTH 8 0
BBX 8 14 0 0
BITMAP
02D0
0BB0
0EB4
1EE8
1FF4
77F9
F7E7
F6A7
F6A7
F7E7
F7EB
FFFF
BFFE
2FF8
ENDCHAR
STARTCHAR hcircumflex
ENCODING 293
SWIDTH 578 0
DWIDTH 8 0
BBX 8 14 0 0
BITMAP
02D0
0BB0
0EB4
1EE8
0FF4
77F9
F7E7
F6A7
F6A7
F7E7
F7EB
FFFF
BFFE
2FF8
ENDCHAR
STARTCHAR Hbar
ENCODING 294
SWIDTH 578 0
DWIDTH 8 0
BBX 8 13 0 0
BITMAP
0BF4
2EBC
2D6C
1FF8
77F9
F7E7
F6A7
F6A7
F7E7
F7EB
FFFF
BFFE
2FF8
ENDCHAR
STARTCHAR hbar
ENCODING 295
SWIDTH 578 0
DWIDTH 8 0
BBX 8 10 0 0
BITMAP
0550
77F9
F157
F6A7
F6A7
F7E7
F7EB
FFFF
BFFE
2FF8
ENDCHAR
STARTCHAR Itilde
ENCODING 296
SWIDTH 578 0
DWIDTH 8 0
BBX 8 14 0 0
BITMAP
0150
0FF8
1FFD
1D5D
1FFC
7959
FF7F
FF7F
FF7F
FF7F
F91B
FFFF
BFFE
2FF8
ENDCHAR
STARTCHAR itilde
ENCODING 297
SWIDTH 578 0
DWIDTH 8 0
BBX 8 14 0 0
BITMAP
0150
0FF8
1FFD
2D5D
1FFC
7959
FF7F
FF7F
FF7F
FF7F
F91B
FFFF
BFFE
2FF8
ENDCHAR
STARTCHAR Imacron
ENCODING 298
SWIDTH 578 0
DWIDTH 8 0
BBX 8 13 0 0
BITMAP
0BF4
1EBD
2D6D
1FF8
7959
FF7F
FF7F
FF7F
FF7F
F91B
FFFF
BFFE
2FF8
ENDCHAR
STARTCHAR imacron
ENCODING 299
SWIDTH 578 0
DWIDTH 8 0
BBX 8 13 0 0
BITMAP
0BF4
2EBD
2D6D
1FF8
7959
FF7F
FF7F
FF7F
FF7F
F91B
FFFF
BFFE
2FF8
ENDCHAR
STARTCHAR Ibreve
ENCODING 300
SWIDTH 578 0
DWIDTH 8 0
BBX 8 13 0 0
BITMAP
0BF4
1FFD
2D5D
1FFC
7959
FF7F
FF7F
FF7F
FF7F
F91B
FFFF
BFFE
2FF8
ENDCHAR
STARTCHAR ibreve
ENCODING 301
SWIDTH 578 0
DWIDTH 8 0
BBX 8 13 0 0
BITMAP
0BF4
1FFD
2D5D
1FFC
7959
FF7F
FF7F
FF7F
FF7F
F91B
FFFF
BFFE
2FF8
ENDCHAR
STARTCHAR Iogonek
ENCODING 302
SWIDTH 578 0
DWIDTH 8 0
BBX 8 10 0 0
BITMAP
0550
7959
FF7F
FF7F
FF7F
FF7F
F91B
FFDF
BFDA
2FF8
ENDCHAR
STARTCHAR iogonek
ENCODING 303
SWIDTH 578 0
DWIDTH 8 0
BBX 8 10 0 0
BITMAP
0550
7959
FF7F
FF7F
FF7F
FF7F
F91B
FFDF
BFDA
2FF8
ENDCHAR
STARTCHAR Idotaccent
ENCODING 304
SWIDTH 578 0
DWIDTH 8 0
BBX 8 13 0 0
BITMAP
0BF4
2FFC
2EBC
1FF8
7959
FF7F
FF7F
FF7F
FF7F
F91B
FFFF
BFFE
2FF8
ENDCHAR
STARTCHAR dotlessi
ENCODING 305
SWIDTH 578 0
DWIDTH 8 0
BBX 8 10 0 0
BITMAP
0550
7959
FF7F
FF7F
FF7F
FF7F
F91B
FFFF
BFFE
2FF8
ENDCHAR
STARTCHAR IJ
ENCODING 306
SWIDTH 578 0
DWIDTH 8 0
BBX 8 10 0 0
BITMAP
0550
55F5
F7F7
F7F7
F7F7
F7F7
D197
FFFF
BFFE
2FF8
ENDCHAR
STARTCHAR ij
ENCODING 307
SWIDTH 578 0
DWIDTH 8 0
BBX 8 10 0 0
BITMAP
0550
55F5
F7F7
F7F7
F7F7
F7F7
D197
FFFF
BFFE
2FF8
ENDCHAR
STARTCHAR Jcircumflex
ENCODING 308
SWIDTH 578 0
DWIDTH 8 0
BBX 8 14 0 0
BITMAP
02E0
07B0
0EB8
0EE8
0FF8
7FAD
FFAF
FFAF
FFAF
FFAF
FD6F
FFFF
BFFE
2FF8
ENDCHAR
STARTCHAR jcircumflex
ENCODING 309
SWIDTH 578 0
DWIDTH 8 0
BBX 8 14 0 0
BITMAP
02E0
07B0
0EB8
0EE8
0FF8
7FAD
FFAF
FFAF
FFAF
FFAF
FD6F
FFFF
BFFE
2FF8
ENDCHAR
STARTCHAR Kcommaaccent
ENCODING 310
SWIDTH 578 0
DWIDTH 8 0
BBX 8 10 0 0
BITMAP
0550
7EE5
F99F
F97F
F97F
F99F
FAEB
FF7F
BF7E
2FF8
ENDCHAR
STARTCHAR kcommaaccent
ENCODING 311
SWIDTH 578 0
DWIDTH 8 0
BBX 8 10 0 0
BITMAP
0550
7EE5
F99F
F97F
F97F
F99F
FAEB
FF7F
BF7E
2FF8
ENDCHAR
STARTCHAR kgreenlandic
ENCODING 312
SWIDTH 578 0
DWIDTH 8 0
BBX 8 10 0 0
BITMAP
0550
7EE5
F99F
F97F
F97F
F99F
FAEB
FFFF
BFFE
2FF8
ENDCHAR
STARTCHAR Lacute
ENCODING 313
SWIDTH 578 0
DWIDTH 8 0
BBX 8 14 0 0
BITMAP
0290
0BB0
0EB0
0ED0
0FD0
7DFD
FDFF
FDFF
FDFF
FDFF
FD5F
FFFF
BFFE
2FF8
ENDCHAR
STARTCHAR lacute
ENCODING 314
SWIDTH 578 0
DWIDTH 8 0
BBX 8 14 0 0
BITMAP
0290
0BB0
0EB0
0ED0
0FD0
7DFD
FDFF
FDFF
FDFF
FDFF
FD5F
FFFF
BFFE
2FF8
ENDCHAR
STARTCHAR Lcommaaccent
ENCODING 315
SWIDTH 578 0
DWIDTH 8 0
BBX 8 10 0 0
BITMAP
0550
7DFD
FDFF
FDFF
FDFF
FDFF
FD5F
FF7F
BF7E
2FF8
ENDCHAR
STARTCHAR lcommaaccent
ENCODING 316
SWIDTH 578 0
DWIDTH 8 0
BBX 8 10 0 0
BITMAP
0550
7DFD
FDFF
FDFF
FDFF
FDFF
FD5F
FF7F
BF7E
2FF8
ENDCHAR
STARTCHAR Lcaron
ENCODING 317
SWIDTH 578 0
DWIDTH 8 0
BBX 8 10 0 0
BITMAP
0550
7D9D
FDDF
FDFF
FDFF
FDFF
FD5F
FFFF
BFFE
2FF8
ENDCHAR
STARTCHAR lcaron
ENCODING 318
SWIDTH 578 0
DWIDTH 8 0
BBX 8 10 0 0
BITMAP
0550
7D9D
FDDF
FDFF
FDFF
FDFF
FD5F
FFFF
BFFE
2FF8
ENDCHAR
STARTCHAR Ldot
ENCODING 319
SWIDTH 578 0
DWIDTH 8 0
BBX 8 10 0 0
BITMAP
0550
7DFD
FDFF
FD6F
FDFF
FDFF
FD5F
FFFF
BFFE
2FF8
ENDCHAR
STARTCHAR ldot
ENCODING 320
SWIDTH 578 0
DWIDTH 8 0
BBX 8 10 0 0
BITMAP
0550
7DFD
FDFF
FD6F
FDFF
FDFF
FD5F
FFFF
BFFE
2FF8
ENDCHAR
STARTCHAR Lslash
ENCODING 321
SWIDTH 578 0
DWIDTH 8 0
BBX 8 10 0 0
BITMAP
0550
7DFD
FDFF
FCBF
F9FF
FDFF
FD5F
FFFF
BFFE
2FF8
ENDCHAR
STARTCHAR lslash
ENCODING 322
SWIDTH 578 0
DWIDTH 8 0
BBX 8 10 0 0
BITMAP
0550
7DFD
FDFF
FCBF
F9FF
FDFF
FD5F
FFFF
BFFE
2FF8
ENDCHAR
STARTCHAR Nacute
ENCODING 323
SWIDTH 578 0
DWIDTH 8 0
BBX 8 14 0 0
BITMAP
01A0
03B8
0778
0BB0
07E0
755D
F7EB
F7EB
F7EB
F7EB
F7EB
FFFF
BFFE
2FF8
ENDCHAR
STARTCHAR nacute
ENCODING 324
SWIDTH 578 0
DWIDTH 8 0
BBX 8 14 0 0
BITMAP
01A0
03B8
0778
0BB0
07E0
755D
F7EB
F7EB
F7EB
F7EB
F7EB
FFFF
BFFE
2FF8
ENDCHAR
STARTCHAR Ncommaaccent
ENCODING 325
SWIDTH 578 0
DWIDTH 8 0
BBX 8 10 0 0
BITMAP
0550
755D
F7EB
F7EB
F7EB
F7EB
F7EB
FF7F
BF7E
2FF8
ENDCHAR
STARTCHAR ncommaaccent
ENCODING 326
SWIDTH 578 0
DWIDTH 8 0
BBX 8 10 0 0
BITMAP
0550
755D
F7EB
F7EB
F7EB
F7EB
F7EB
FF7F
BF7E
2FF8
ENDCHAR
STARTCHAR Ncaron
ENCODING 327
SWIDTH 578 0
DWIDTH 8 0
BBX 8 14 0 0
BITMAP
0560
1EF8
1EB4
0EB4
0FF0
755D
F7EB
F7EB
F7EB
F7EB
F7EB
FFFF
BFFE
2FF8
ENDCHAR
STARTCHAR ncaron
ENCODING 328
SWIDTH 578 0
DWIDTH 8 0
BBX 8 14 0 0
BITMAP
0560
1EF8
1EB4
0EB4
0FF0
755D
F7EB
F7EB
F7EB
F7EB
F7EB
FFFF
BFFE
2FF8
ENDCHAR
STARTCHAR napostrophe
ENCODING 329
SWIDTH 578 0
DWIDTH 8 0
BBX 8 10 0 0
BITMAP
0550
755D
97EB
E7EB
F7EB
F7EB
F7EB
FFFF
BFFE
2FF8
ENDCHAR
STARTCHAR Eng
ENCODING 330
SWIDTH 578 0
DWIDTH 8 0
BBX 8 10 0 0
BITMAP
0550
755D
F7EB
F7EB
F7EB
F7EB
F7EB
FFEB
BF5A
2FF8
ENDCHAR
STARTCHAR eng
ENCODING 331
SWIDTH 578 0
DWIDTH 8 0
BBX 8 10 0 0
BITMAP
0550
755D
F7EB
F7EB
F7EB
F7EB
F7EB
FFEB
BF5A
2FF8
ENDCHAR
STARTCHAR Omacron
ENCODING 332
SWIDTH 578 0
DWIDTH 8 0
BBX 8 13 0 0
BITMAP
0BF4
2EBD
2D6D
1FF8
7959
F7E7
F7E7
F7E7
F7E7
F95B
FFFF
BFFE
2FF8
ENDCHAR
STARTCHAR omacron
ENCODING 333
SWIDTH 578 0
DWIDTH 8 0
BBX 8 13 0 0
BITMAP
0BF4
2EBD
2D6D
1FF8
7959
F7E7
F7E7
F7E7
F7E7
F95B
FFFF
BFFE
2FF8
ENDCHAR
STARTCHAR Obreve
ENCODING 334
SWIDTH 578 0
DWIDTH 8 0
BBX 8 13 0 0
BITMAP
0BF4
2FFD
2D6D
1FF8
7959
F7E7
F7E7
F7E7
F7E7
F95B
FFFF
BFFE
2FF8
ENDCHAR
STARTCHAR obreve
ENCODING 335
SWIDTH 578 0
DWIDTH 8 0
BBX 8 13 0 0
BITMAP
0BF4
2FFD
2D6D
1FF8
7959
F7E7
F7E7
F7E7
F7E7
F95B
FFFF
BFFE
2FF8
ENDCHAR
STARTCHAR Ohungarumlaut
ENCODING 336
SWIDTH 578 0
DWIDTH 8 0
BBX 8 14 0 0
BITMAP
00A9
02BA
076B
0AED
0BF8
7959
F7E7
F7E7
F7E7
F7E7
F95B
FFFF
BFFE
2FF8
ENDCHAR
STARTCHAR ohungarumlaut
ENCODING 337
SWIDTH 578 0
DWIDTH 8 0
BBX 8 14 0 0
BITMAP
00A9
02BA
076B
0AED
0BF8
7959
F7E7
F7E7
F7E7
F7E7
F95B
FFFF
BFFE
2FF8
ENDCHAR
STARTCHAR OE
ENCODING 338
SWIDTH 578 0
DWIDTH 8 0
BBX 8 10 0 0
BITMAP
0550
6559
EB7F
EB6F
EB6B
EB7F
E557
FFFF
BFFE
2FF8
ENDCHAR
STARTCHAR oe
ENCODING 339
SWIDTH 578 0
DWIDTH 8 0
BBX 8 10 0 0
BITMAP
0550
6559
EB7F
EB6F
EB6B
EB7F
E557
FFFF
BFFE
2FF8
ENDCHAR
STARTCHAR Racute
ENCODING 340
SWIDTH 578 0
DWIDTH 8 0
BBX 8 14 0 0
BITMAP
01A0
03B8
0778
0BB0
07E0
795D
F7DF
F6DF
F55F
F7DB
F7EF
FFFF
BFFE
2FF8
ENDCHAR
STARTCHAR racute
ENCODING 341
SWIDTH 578 0
DWIDTH 8 0
BBX 8 14 0 0
BITMAP
01A0
03B8
0778
0BB0
07E0
795D
F7DF
F6DF
F55F
F7DB
F7EF
FFFF
BFFE
2FF8
ENDCHAR
STARTCHAR Rcommaaccent
ENCODING 342
SWIDTH 578 0
DWIDTH 8 0
BBX 8 10 0 0
BITMAP
0550
795D
F7DF
F6DF
F55F
F7DB
F7EF
FF7F
BF7E
2FF8
ENDCHAR
STARTCHAR rcommaaccent
ENCODING 343
SWIDTH 578 0
DWIDTH 8 0
BBX 8 10 0 0
BITMAP
0550
795D
F7DF
F6DF
F55F
F7DB
F7EF
FF7F
BF7E
2FF8
ENDCHAR
STARTCHAR Rcaron
ENCODING 344
SWIDTH 578 0
DWIDTH 8 0
BBX 8 14 0 0
BITMAP
0560
1EF8
1EB4
0EB4
0FF0
795D
F7DF
F6DF
F55F
F7DB
F7EF
FFFF
BFFE
2FF8
ENDCHAR
STARTCHAR rcaron
ENCODING 345
SWIDTH 578 0
DWIDTH 8 0
BBX 8 14 0 0
BITMAP
0560
1EF8
1EB4
0EB4
0FF0
795D
F7DF
F6DF
F55F
F7DB
F7EF
FFFF
BFFE
2FF8
ENDCHAR
STARTCHAR Sacute
ENCODING 346
SWIDTH 578 0
DWIDTH 8 0
BBX 8 14 0 0
BITMAP
00A4
02AC
0378
07B4
07F0
795D
F7FF
F6AF
FE9B
FFEB
F95B
FFFF
BFFE
2FF8
ENDCHAR
STARTCHAR sacute
ENCODING 347
SWIDTH 578 0
DWIDTH 8 0
BBX 8 14 0 0
BITMAP
00A4
02AC
0378
07B4
07F0
795D
F7FF
F6AF
FE9B
FFEB
F95B
FFFF
BFFE
2FF8
ENDCHAR
STARTCHAR Scircumflex
ENCODING 348
SWIDTH 578 0
DWIDTH 8 0
BBX 8 14 0 0
BITMAP
02E0
0774
0AA8
0EEC
0FF8
795D
F7FF
F6AF
FE9B
FFEB
F95B
FFFF
BFFE
2FF8
ENDCHAR
STARTCHAR scircumflex
ENCODING 349
SWIDTH 578 0
DWIDTH 8 0
BBX 8 14 0 0
BITMAP
02E0
0774
0AA8
0EEC
0FF8
795D
F7FF
F6AF
FE9B
FFEB
F95B
FFFF
BFFE
2FF8
ENDCHAR
STARTCHAR Scedilla
ENCODING 350
SWIDTH 578 0
DWIDTH 8 0
BBX 8 10 0 0
BITMAP
0550
795D
F7FF
F6AF
FE9B
FFEB
F95B
FE7F
BDBE
2FF8
ENDCHAR
STARTCHAR scedilla
ENCODING 351
SWIDTH 578 0
DWIDTH 8 0
BBX 8 10 0 0
BITMAP
0550
795D
F7FF
F6AF
FE9B
FFEB
F95B
FE7F
BDBE
2FF8
ENDCHAR
STARTCHAR Scaron
ENCODING 352
SWIDTH 578 0
DWIDTH 8 0
BBX 8 14 0 0
BITMAP
0664
0EEC
0EAC
0B78
0BF4
795D
F7FF
F6AF
FE9B
FFEB
F95B
FFFF
BFFE
2FF8
ENDCHAR
STARTCHAR scaron
ENCODING 353
SWIDTH 578 0
DWIDTH 8 0
BBX 8 14 0 0
BITMAP
0664
0EEC
0EAC
0B78
0BF4
795D
F7FF
F6AF
FE9B
FFEB
F95B
FFFF
BFFE
2FF8
ENDCHAR
STARTCHAR Tcommaaccent
ENCODING 354
SWIDTH 578 0
DWIDTH 8 0
BBX 8 10 0 0
BITMAP
0550
7959
FF7F
FF7F
FF7F
FF7F
FF7F
FF7F
BF7E
2FF8
ENDCHAR
STARTCHAR tcommaaccent
ENCODING 355
SWIDTH 578 0
DWIDTH 8 0
BBX 8 10 0 0
BITMAP
0550
7959
FF7F
FF7F
FF7F
FF7F
FF7F
FF7F
BF7E
2FF8
ENDCHAR
STARTCHAR Tcaron
ENCODING 356
SWIDTH 578 0
DWIDTH 8 0
BBX 8 14 0 0
BITMAP
0664
0EF8
0EA8
0A74
0BF4
7959
FF7F
FF7F
FF7F
FF7F
FF7F
FFFF
BFFE
2FF8
ENDCHAR
STARTCHAR tcaron
ENCODING 357
SWIDTH 578 0
DWIDTH 8 0
BBX 8 10 0 0
BITMAP
0550
7959
FF6B
FF6B
FF7F
FF7F
FF7F
FFFF
BFFE
2FF8
ENDCHAR
STARTCHAR Tbar
ENCODING 358
SWIDTH 578 0
DWIDTH 8 0
BBX 8 10 0 0
BITMAP
0550
7959
FF7F
FF7F
FE2F
FF7F
FF7F
FFFF
BFFE
2FF8
ENDCHAR
STARTCHAR tbar
ENCODING 359
SWIDTH 578 0
DWIDTH 8 0
BBX 8 10 0 0
BITMAP
0550
7959
FF7F
FF7F
FE2F
FF7F
FF7F
FFFF
BFFE
2FF8
ENDCHAR
STARTCHAR Utilde
ENCODING 360
SWIDTH 578 0
DWIDTH 8 0
BBX 8 14 0 0
BITMAP
0150
0FF8
2FFD
2D5D
1FFC
77E9
F7EB
F7EB
F7EB
F7EB
F55B
FFFF
BFFE
2FF8
ENDCHAR
STARTCHAR utilde
ENCODING 361
SWIDTH 578 0
DWIDTH 8 0
BBX 8 14 0 0
BITMAP
0150
0FF8
1FFD
2D5D
1FFC
77E9
F7EB
F7EB
F7EB
F7EB
F55B
FFFF
BFFE
2FF8
ENDCHAR
STARTCHAR Umacron
ENCODING 362
SWIDTH 578 0
DWIDTH 8 0
BBX 8 13 0 0
BITMAP
0BF4
1EBD
2D6D
1FFC
77E9
F7EB
F7EB
F7EB
F7EB
F55B
FFFF
BFFE
2FF8
ENDCHAR
STARTCHAR umacron
ENCODING 363
SWIDTH 578 0
DWIDTH 8 0
BBX 8 13 0 0
BITMAP
0BF4
1EBD
2D6D
1FFC
77E9
F7EB
F7EB
F7EB
F7EB
F55B
FFFF
BFFE
2FF8
ENDCHAR
STARTCHAR Ubreve
ENCODING 364
SWIDTH 578 0
DWIDTH 8 0
BBX 8 13 0 0
BITMAP
0BF4
1FFD
2D5D
1FFC
77E9
F7EB
F7EB
F7EB
F7EB
F55B
FFFF
BFFE
2FF8
ENDCHAR
STARTCHAR ubreve
ENCODING 365
SWIDTH 578 0
DWIDTH 8 0
BBX 8 13 0 0
BITMAP
0BF4
1FFD
2D5D
1FFC
77E9
F7EB
F7EB
F7EB
F7EB
F55B
FFFF
BFFE
2FF8
ENDCHAR
STARTCHAR Uring
ENCODING 366
SWIDTH 578 0
DWIDTH 8 0
BBX 8 14 0 0
BITMAP
0140
0BF4
0D68
1D6C
0FF8
77E9
F7EB
F7EB
F7EB
F7EB
F55B
FFFF
BFFE
2FF8
ENDCHAR
STARTCHAR uring
ENCODING 367
SWIDTH 578 0
DWIDTH 8 0
BBX 8 14 0 0
BITMAP
0140
0BF4
0DA8
1D6C
0FF8
77E9
F7EB
F7EB
F7EB
F7EB
F55B
FFFF
BFFE
2FF8
ENDCHAR
STARTCHAR Uhungarumlaut
ENCODING 368
SWIDTH 581 0
DWIDTH 8 0
BBX 8 14 0 0
BITMAP
00A9
02BA
076B
0AED
0BF8
77E9
F7EB
F7EB
F7EB
F7EB
F55B
FFFF
BFFE
2FF8
ENDCHAR
STARTCHAR uhungarumlaut
ENCODING 369
SWIDTH 582 0
DWIDTH 8 0
BBX 8 14 0 0
BITMAP
00A9
02BA
076B
0AED
0BF8
77E9
F7EB
F7EB
F7EB
F7EB
F55B
FFFF
BFFE
2FF8
ENDCHAR
STARTCHAR Uogonek
ENCODING 370
SWIDTH 578 0
DWIDTH 8 0
BBX 8 10 0 0
BITMAP
0550
77E9
F7EB
F7EB
F7EB
F7EB
F55B
FF7F
BE7E
2FF8
ENDCHAR
STARTCHAR uogonek
ENCODING 371
SWIDTH 578 0
DWIDTH 8 0
BBX 8 10 0 0
BITMAP
0550
77E9
F7EB
F7EB
F7EB
F7EB
F55B
FF7F
BE7E
2FF8
ENDCHAR
STARTCHAR Wcircumflex
ENCODING 372
SWIDTH 578 0
DWIDTH 8 0
BBX 8 14 0 0
BITMAP
02D0
0BB0
0EB4
1EA8
1FF4
6BB5
EA77
EA37
F567
F5A7
F59B
FFFF
BFFE
2FF8
ENDCHAR
STARTCHAR wcircumflex
ENCODING 373
SWIDTH 578 0
DWIDTH 8 0
BBX 8 14 0 0
BITMAP
02D0
0BB0
0EB4
1EA8
1FF4
6BB5
EA77
EA37
F567
F5A7
F59B
FFFF
BFFE
2FF8
ENDCHAR
STARTCHAR Ycircumflex
ENCODING 374
SWIDTH 578 0
DWIDTH 8 0
BBX 8 14 0 0
BITMAP
02E0
07B0
0EB8
0EE8
0FF8
7AE9
F9DF
FDAF
FE3F
FF7F
FF7F
FFFF
BFFE
2FF8
ENDCHAR
STARTCHAR ycircumflex
ENCODING 375
SWIDTH 578 0
DWIDTH 8 0
BBX 8 14 0 0
BITMAP
02E0
07B0
0EB8
0EE8
0FF8
7AE9
F9DF
FDAF
FE3F
FF7F
FF7F
FFFF
BFFE
2FF8
ENDCHAR
STARTCHAR Ydieresis
ENCODING 376
SWIDTH 578 0
DWIDTH 8 0
BBX 8 13 0 0
BITMAP
07E4
1EEC
1DEC
0FF4
7AE9
F9DF
FDAF
FE3F
FF7F
FF7F
FFFF
BFFE
2FF8
ENDCHAR
STARTCHAR Zacute
ENCODING 377
SWIDTH 578 0
DWIDTH 8 0
BBX 8 14 0 0
BITMAP
0190
07B4
0B74
0AE0
0BD0
795D
FF9F
FF7F
FEBF
FDFF
F95F
FFFF
BFFE
2FF8
ENDCHAR
STARTCHAR zacute
ENCODING 378
SWIDTH 578 0
DWIDTH 8 0
BBX 8 14 0 0
BITMAP
0190
07B4
0B74
0AE0
0BD0
795D
FF9F
FF7F
FEBF
FDFF
F95F
FFFF
BFFE
2FF8
ENDCHAR
STARTCHAR Zdotaccent
ENCODING 379
SWIDTH 578 0
DWIDTH 8 0
BBX 8 13 0 0
BITMAP
0BE4
2FFC
3EBC
2FF8
795D
FF9F
FF7F
FEBF
FDFF
F95F
FFFF
BFFE
2FF8
ENDCHAR
STARTCHAR zdotaccent
ENCODING 380
SWIDTH 578 0
DWIDTH 8 0
BBX 8 13 0 0
BITMAP
0BE4
2FFC
3EBC
2FF8
795D
FF9F
FF7F
FEBF
FDFF
F95F
FFFF
BFFE
2FF8
ENDCHAR
STARTCHAR Zcaron
ENCODING 381
SWIDTH 578 0
DWIDTH 8 0
BBX 8 14 0 0
BITMAP
0660
1EF8
1EB8
0EB4
0BF0
795D
FF9F
FF7F
FEBF
FDFF
F95F
FFFF
BFFE
2FF8
ENDCHAR
STARTCHAR zcaron
ENCODING 382
SWIDTH 578 0
DWIDTH 8 0
BBX 8 14 0 0
BITMAP
0660
1EF8
1EB8
0EB4
0BF0
795D
FF9F
FF7F
FEBF
FDFF
F95F
FFFF
BFFE
2FF8
ENDCHAR
STARTCHAR longs
ENCODING 383
SWIDTH 578 0
DWIDTH 8 0
BBX 8 10 0 0
BITMAP
0550
7EBD
FA9F
F7FB
F7AB
FAAF
FFBF
FFFF
BFFE
2FF8
ENDCHAR
STARTCHAR florin
ENCODING 402
SWIDTH 578 0
DWIDTH 8 0
BBX 8 10 0 0
BITMAP
0550
7E6D
FDFF
FDBF
FDBF
FDFF
FDFF
F9FF
BFFE
2FF8
ENDCHAR
STARTCHAR uni01CD
ENCODING 461
SWIDTH 578 0
DWIDTH 8 0
BBX 8 14 0 0
BITMAP
0664
1EF8
0EB8
0E74
0BF4
795D
FADF
F7DF
F55B
F7EB
F7EB
FFFF
BFFE
2FF8
ENDCHAR
STARTCHAR uni01CE
ENCODING 462
SWIDTH 578 0
DWIDTH 8 0
BBX 8 14 0 0
BITMAP
0664
0EEC
0EA8
0B78
0BF4
795D
FFDF
FFDF
F54F
F7DF
F55F
FFFF
BFFE
2FF8
ENDCHAR
STARTCHAR uni01CF
ENCODING 463
SWIDTH 578 0
DWIDTH 8 0
BBX 8 14 0 0
BITMAP
0664
0EEC
0EAC
0B78
0BF4
7959
FF7F
FF7F
FF7F
FF7F
F91B
FFFF
BFFE
2FF8
ENDCHAR
STARTCHAR uni01D0
ENCODING 464
SWIDTH 578 0
DWIDTH 8 0
BBX 8 14 0 0
BITMAP
0664
0EEC
0EAC
0B78
0BF4
7959
FF7F
FF7F
FF7F
FF7F
F91B
FFFF
BFFE
2FF8
ENDCHAR
STARTCHAR uni01D1
ENCODING 465
SWIDTH 578 0
DWIDTH 8 0
BBX 8 14 0 0
BITMAP
0664
0EEC
0EA8
0B78
0BF4
7959
F7E7
F7E7
F7E7
F7E7
F95B
FFFF
BFFE
2FF8
ENDCHAR
STARTCHAR uni01D3
ENCODING 467
SWIDTH 578 0
DWIDTH 8 0
BBX 8 14 0 0
BITMAP
0664
0EEC
0EAC
0B78
0BF4
77E9
F7EB
F7EB
F7EB
F7EB
F55B
FFFF
BFFE
2FF8
ENDCHAR
STARTCHAR uni01D4
ENCODING 468
SWIDTH 578 0
DWIDTH 8 0
BBX 8 14 0 0
BITMAP
0664
0EEC
0EAC
0B78
0BF4
77E9
F7EB
F7EB
F7EB
F7EB
F55B
FFFF
BFFE
2FF8
ENDCHAR
STARTCHAR uni0200
ENCODING 512
SWIDTH 578 0
DWIDTH 8 0
BBX 8 14 0 0
BITMAP
1A80
3AD0
7BB0
2EB4
0FF4
795D
FADF
F7DF
F55B
F7EB
F7EB
FFFF
BFFE
2FF8
ENDCHAR
STARTCHAR uni0201
ENCODING 513
SWIDTH 578 0
DWIDTH 8 0
BBX 8 14 0 0
BITMAP
1A80
3AD0
7BB0
2EB4
0FF4
795D
FFDF
FFDF
F54F
F7DF
F55F
FFFF
BFFE
2FF8
ENDCHAR
STARTCHAR uni0202
ENCODING 514
SWIDTH 578 0
DWIDTH 8 0
BBX 8 13 0 0
BITMAP
0BE4
2FFC
2D6D
1FF8
7D6D
FADF
F7DF
F55B
F7EB
F7EB
FFFF
BFFE
2FF8
ENDCHAR
STARTCHAR uni0203
ENCODING 515
SWIDTH 578 0
DWIDTH 8 0
BBX 8 13 0 0
BITMAP
0BE4
2FFC
2D6D
1FF8
796D
FFDF
FFDF
F54F
F7DF
F55F
FFFF
BFFE
2FF8
ENDCHAR
STARTCHAR uni0204
ENCODING 516
SWIDTH 578 0
DWIDTH 8 0
BBX 8 14 0 0
BITMAP
1A80
3AD0
7BB0
2EB4
0FF4
795D
FAFF
F9AF
F9AF
FAFF
F95F
FFFF
BFFE
2FF8
ENDCHAR
STARTCHAR uni0205
ENCODING 517
SWIDTH 578 0
DWIDTH 8 0
BBX 8 14 0 0
BITMAP
1A80
3AD0
7BB0
2EB4
0FF4
795D
F7DF
F14F
F7FF
F7FF
F96F
FFFF
BFFE
2FF8
ENDCHAR
STARTCHAR uni0206
ENCODING 518
SWIDTH 578 0
DWIDTH 8 0
BBX 8 13 0 0
BITMAP
0BE4
2FFC
2D6D
1FF8
7D5D
FAFF
F9AF
F9AF
FAFF
F95F
FFFF
BFFE
2FF8
ENDCHAR
STARTCHAR uni0207
ENCODING 519
SWIDTH 578 0
DWIDTH 8 0
BBX 8 13 0 0
BITMAP
0BE4
2FFC
2D6D
1FF8
796D
F7DF
F14F
F7FF
F7FF
F96F
FFFF
BFFE
2FF8
ENDCHAR
STARTCHAR uni0208
ENCODING 520
SWIDTH 578 0
DWIDTH 8 0
BBX 8 14 0 0
BITMAP
1A80
3AD0
7BB0
2EB4
0FF4
7959
FF7F
FF7F
FF7F
FF7F
F91B
FFFF
BFFE
2FF8
ENDCHAR
STARTCHAR uni0209
ENCODING 521
SWIDTH 578 0
DWIDTH 8 0
BBX 8 14 0 0
BITMAP
1A80
3AD0
7BB0
2EB4
0FF4
7959
FF7F
FF7F
FF7F
FF7F
F91B
FFFF
BFFE
2FF8
ENDCHAR
STARTCHAR uni020A
ENCODING 522
SWIDTH 578 0
DWIDTH 8 0
BBX 8 13 0 0
BITMAP
0BE4
2FFC
2D6D
1FF8
7959
FF7F
FF7F
FF7F
FF7F
F91B
FFFF
BFFE
2FF8
ENDCHAR
STARTCHAR uni020B
ENCODING 523
SWIDTH 578 0
DWIDTH 8 0
BBX 8 13 0 0
BITMAP
0BE4
2FFC
2D6D
1FF8
7959
FF7F
FF7F
FF7F
FF7F
F91B
FFFF
BFFE
2FF8
ENDCHAR
STARTCHAR uni020C
ENCODING 524
SWIDTH 578 0
DWIDTH 8 0
BBX 8 14 0 0
BITMAP
1A80
3AD0
7BB0
2EB4
0FF4
7959
F7E7
F7E7
F7E7
F7E7
F95B
FFFF
BFFE
2FF8
ENDCHAR
STARTCHAR uni020D
ENCODING 525
SWIDTH 578 0
DWIDTH 8 0
BBX 8 14 0 0
BITMAP
1A80
3AD0
7BB0
2EB4
0FF4
7959
F7E7
F7E7
F7E7
F7E7
F95B
FFFF
BFFE
2FF8
ENDCHAR
STARTCHAR uni020E
ENCODING 526
SWIDTH 578 0
DWIDTH 8 0
BBX 8 13 0 0
BITMAP
0BE4
2FFC
2D6D
1FF8
7959
F7E7
F7E7
F7E7
F7E7
F95B
FFFF
BFFE
2FF8
ENDCHAR
STARTCHAR uni020F
ENCODING 527
SWIDTH 578 0
DWIDTH 8 0
BBX 8 13 0 0
BITMAP
0BE4
2FFC
2D6D
1FF8
7959
F7E7
F7E7
F7E7
F7E7
F95B
FFFF
BFFE
2FF8
ENDCHAR
STARTCHAR uni0210
ENCODING 528
SWIDTH 578 0
DWIDTH 8 0
BBX 8 14 0 0
BITMAP
1A80
3AD0
7BB0
2EB4
0FF4
795D
F7DF
F6DF
F55F
F7DB
F7EF
FFFF
BFFE
2FF8
ENDCHAR
STARTCHAR uni0211
ENCODING 529
SWIDTH 578 0
DWIDTH 8 0
BBX 8 14 0 0
BITMAP
1A80
3AD0
7BB0
2EB4
0FF4
795D
F7DF
F6DF
F55F
F7DB
F7EF
FFFF
BFFE
2FF8
ENDCHAR
STARTCHAR uni0212
ENCODING 530
SWIDTH 578 0
DWIDTH 8 0
BBX 8 13 0 0
BITMAP
0BE4
2FFC
2D6D
1FF8
796D
F7DF
F6DF
F55F
F7DB
F7EF
FFFF
BFFE
2FF8
ENDCHAR
STARTCHAR uni0213
ENCODING 531
SWIDTH 578 0
DWIDTH 8 0
BBX 8 13 0 0
BITMAP
0BE4
2FFC
2D6D
1FF8
796D
F7DF
F6DF
F55F
F7DB
F7EF
FFFF
BFFE
2FF8
ENDCHAR
STARTCHAR uni0214
ENCODING 532
SWIDTH 578 0
DWIDTH 8 0
BBX 8 14 0 0
BITMAP
1A80
3AD0
7BB0
2EB4
0FF4
77E9
F7EB
F7EB
F7EB
F7EB
F55B
FFFF
BFFE
2FF8
ENDCHAR
STARTCHAR uni0215
ENCODING 533
SWIDTH 578 0
DWIDTH 8 0
BBX 8 14 0 0
BITMAP
1A80
3AD0
7BB0
2EB4
0FF4
77E9
F7EB
F7EB
F7EB
F7EB
F55B
FFFF
BFFE
2FF8
ENDCHAR
STARTCHAR uni0216
ENCODING 534
SWIDTH 578 0
DWIDTH 8 0
BBX 8 13 0 0
BITMAP
0BE4
2FFC
2D6D
1FF8
7BF9
F7EB
F7EB
F7EB
F7EB
F55B
FFFF
BFFE
2FF8
ENDCHAR
STARTCHAR uni0217
ENCODING 535
SWIDTH 578 0
DWIDTH 8 0
BBX 8 13 0 0
BITMAP
0BE4
2FFC
2D6D
1FF8
7BF9
F7EB
F7EB
F7EB
F7EB
F55B
FFFF
BFFE
2FF8
ENDCHAR
STARTCHAR uni0218
ENCODING 536
SWIDTH 578 0
DWIDTH 8 0
BBX 8 10 0 0
BITMAP
0550
795D
F7FF
F6AF
FE9B
FFEB
F95B
FF7F
BF7E
2FF8
ENDCHAR
STARTCHAR uni0219
ENCODING 537
SWIDTH 578 0
DWIDTH 8 0
BBX 8 10 0 0
BITMAP
0550
795D
F7FF
F6AF
FE9B
FFEB
F95B
FF7F
BF7E
2FF8
ENDCHAR
STARTCHAR uni021A
ENCODING 538
SWIDTH 578 0
DWIDTH 8 0
BBX 8 10 0 0
BITMAP
0550
7959
FF7F
FF7F
FF7F
FF7F
FF7F
FF7F
BF7E
2FF8
ENDCHAR
STARTCHAR uni021B
ENCODING 539
SWIDTH 578 0
DWIDTH 8 0
BBX 8 10 0 0
BITMAP
0550
7959
FF7F
FF7F
FF7F
FF7F
FF7F
FF7F
BF7E
2FF8
ENDCHAR
STARTCHAR circumflex
ENCODING 710
SWIDTH 355 0
DWIDTH 5 0
BBX 5 5 0 0
BITMAP
2E00
7740
AA80
EEC0
AA80
ENDCHAR
STARTCHAR caron
ENCODING 711
SWIDTH 355 0
DWIDTH 5 0
BBX 5 5 0 0
BITMAP
6640
EEC0
EAC0
B780
6A40
ENDCHAR
STARTCHAR breve
ENCODING 728
SWIDTH 428 0
DWIDTH 6 0
BBX 6 4 0 0
BITMAP
6F90
FFF0
F5F0
7FD0
ENDCHAR
STARTCHAR dotaccent
ENCODING 729
SWIDTH 428 0
DWIDTH 6 0
BBX 6 4 0 0
BITMAP
6F90
FFF0
FAF0
BFE0
ENDCHAR
STARTCHAR ring
ENCODING 730
SWIDTH 368 0
DWIDTH 5 0
BBX 5 5 0 0
BITMAP
0400
7F40
E9C0
E9C0
BFC0
ENDCHAR
STARTCHAR ogonek
ENCODING 731
SWIDTH 101 0
DWIDTH 1 0
BBX 2 2 0 -2
BITMAP
80
90
ENDCHAR
STARTCHAR tilde
ENCODING 732
SWIDTH 428 0
DWIDTH 6 0
BBX 6 5 0 0
BITMAP
0500
7FD0
FFF0
E5B0
BFE0
ENDCHAR
STARTCHAR hungarumlaut
ENCODING 733
SWIDTH 419 0
DWIDTH 6 0
BBX 6 5 0 0
BITMAP
1A80
3BA0
BAE0
EEC0
AA40
ENDCHAR
STARTCHAR uni030F
ENCODING 783
SWIDTH 419 0
DWIDTH 6 0
BBX 6 5 0 0
BITMAP
2A40
AEC0
AAD0
3BB0
1AA0
ENDCHAR
STARTCHAR mu
ENCODING 956
SWIDTH 578 0
DWIDTH 8 0
BBX 8 10 0 0
BITMAP
0550
77E9
F7EB
F7EB
F7EB
F7EB
F55B
FBFF
BFFE
2FF8
ENDCHAR
STARTCHAR pi
ENCODING 960
SWIDTH 578 0
DWIDTH 8 0
BBX 8 10 0 0
BITMAP
0550
796D
E967
EEEA
E99E
EADA
EBE7
FEAF
BFFE
2FF8
ENDCHAR
STARTCHAR uni1E60
ENCODING 7776
SWIDTH 578 0
DWIDTH 8 0
BBX 8 13 0 0
BITMAP
0BF4
1FFD
2F7D
1FFC
795D
F7FF
F6AF
FE9B
FFEB
F95B
FFFF
BFFE
2FF8
ENDCHAR
STARTCHAR uni1E8E
ENCODING 7822
SWIDTH 578 0
DWIDTH 8 0
BBX 8 13 0 0
BITMAP
0BF4
1FFD
2F7D
1FFC
7AE9
F9DF
FDAF
FE3F
FF7F
FF7F
FFFF
BFFE
2FF8
ENDCHAR
STARTCHAR uni1E8F
ENCODING 7823
SWIDTH 578 0
DWIDTH 8 0
BBX 8 13 0 0
BITMAP
0BF4
1FFD
2F7D
1FFC
7AE9
F9DF
FDAF
FE3F
FF7F
FF7F
FFFF
BFFE
2FF8
ENDCHAR
STARTCHAR uni1EBC
ENCODING 7868
SWIDTH 578 0
DWIDTH 8 0
BBX 8 14 0 0
BITMAP
0150
0FF8
2FFD
2D5D
1FFC
795D
FAFF
F9AF
F9AF
FAFF
F95F
FFFF
BFFE
2FF8
ENDCHAR
STARTCHAR uni1EF8
ENCODING 7928
SWIDTH 578 0
DWIDTH 8 0
BBX 8 14 0 0
BITMAP
0150
0FF8
2FFD
2D5D
1FFC
7AE9
F9DF
FDAF
FE3F
FF7F
FF7F
FFFF
BFFE
2FF8
ENDCHAR
STARTCHAR uni1EF9
ENCODING 7929
SWIDTH 578 0
DWIDTH 8 0
BBX 8 14 0 0
BITMAP
0150
0FF8
2FFD
2D5D
1FFC
7AE9
F9DF
FDAF
FE3F
FF7F
FF7F
FFFF
BFFE
2FF8
ENDCHAR
STARTCHAR endash
ENCODING 8211
SWIDTH 428 0
DWIDTH 6 0
BBX 6 10 0 0
BITMAP
0500
7FD0
FFF0
E5B0
FFF0
FFF0
FFF0
FFF0
BFE0
2F80
ENDCHAR
STARTCHAR emdash
ENCODING 8212
SWIDTH 428 0
DWIDTH 6 0
BBX 6 10 0 0
BITMAP
0500
7FD0
FFF0
5550
FFF0
FFF0
FFF0
FFF0
BFE0
2F80
ENDCHAR
STARTCHAR quoteleft
ENCODING 8216
SWIDTH 428 0
DWIDTH 6 0
BBX 6 10 0 0
BITMAP
0500
7ED0
F9F0
FFF0
FFF0
FFF0
FFF0
FFF0
BFE0
2F80
ENDCHAR
STARTCHAR quoteright
ENCODING 8217
SWIDTH 428 0
DWIDTH 6 0
BBX 6 10 0 0
BITMAP
0500
7AD0
FEF0
FFF0
FFF0
FFF0
FFF0
FFF0
BFE0
2F80
ENDCHAR
STARTCHAR quotesinglbase
ENCODING 8218
SWIDTH 428 0
DWIDTH 6 0
BBX 6 10 0 0
BITMAP
0500
7FD0
FFF0
FFF0
FFF0
FFF0
F9F0
FEF0
BFE0
2F80
ENDCHAR
STARTCHAR quotedblleft
ENCODING 8220
SWIDTH 428 0
DWIDTH 6 0
BBX 6 10 0 0
BITMAP
0500
7AD0
F0F0
FFF0
FFF0
FFF0
FFF0
FFF0
BFE0
2F80
ENDCHAR
STARTCHAR quotedblright
ENCODING 8221
SWIDTH 428 0
DWIDTH 6 0
BBX 6 10 0 0
BITMAP
0500
7590
F6F0
FFF0
FFF0
FFF0
FFF0
FFF0
BFE0
2F80
ENDCHAR
STARTCHAR quotedblbase
ENCODING 8222
SWIDTH 428 0
DWIDTH 6 0
BBX 6 10 0 0
BITMAP
0500
7FD0
FFF0
FFF0
FFF0
FFF0
F1B0
FAF0
BFE0
2F80
ENDCHAR
STARTCHAR dagger
ENCODING 8224
SWIDTH 578 0
DWIDTH 8 0
BBX 8 10 0 0
BITMAP
0550
7F7D
FD2F
FF7F
FF7F
FF7F
FF7F
FFFF
BFFE
2FF8
ENDCHAR
STARTCHAR daggerdbl
ENCODING 8225
SWIDTH 578 0
DWIDTH 8 0
BBX 8 10 0 0
BITMAP
0550
7F7D
FD2F
FF7F
FF7F
FD1F
FF7F
FFFF
BFFE
2FF8
ENDCHAR
STARTCHAR bullet
ENCODING 8226
SWIDTH 578 0
DWIDTH 8 0
BBX 8 10 0 0
BITMAP
0550
7FFD
F80F
F40B
F40B
F40B
FD6F
FFFF
BFFE
2FF8
ENDCHAR
STARTCHAR ellipsis
ENCODING 8230
SWIDTH 578 0
DWIDTH 8 0
BBX 8 10 0 0
BITMAP
0550
7FFD
FFFF
FFFF
FFFF
FFFF
E69F
FFFF
BFFE
2FF8
ENDCHAR
STARTCHAR perthousand
ENCODING 8240
SWIDTH 640 0
DWIDTH 9 0
BBX 9 10 0 0
BITMAP
055400
6FFF40
55FF80
95FFC0
F96980
F65640
FB6980
FFFFC0
BFFF80
2FFE00
ENDCHAR
STARTCHAR guilsinglleft
ENCODING 8249
SWIDTH 578 0
DWIDTH 8 0
BBX 8 10 0 0
BITMAP
0550
7FFD
FFAF
FE7F
FDFF
FEBF
FF6F
FFFF
BFFE
2FF8
ENDCHAR
STARTCHAR guilsinglright
ENCODING 8250
SWIDTH 578 0
DWIDTH 8 0
BBX 8 10 0 0
BITMAP
0550
7FFD
FDFF
FF7F
FFAF
FF7F
FDBF
FFFF
BFFE
2FF8
ENDCHAR
STARTCHAR fraction
ENCODING 8260
SWIDTH 428 0
DWIDTH 6 0
BBX 6 10 0 0
BITMAP
0500
7DD0
FDF0
FAF0
FAF0
F7F0
F7F0
FFF0
BFE0
2F80
ENDCHAR
STARTCHAR Euro
ENCODING 8364
SWIDTH 578 0
DWIDTH 8 0
BBX 8 10 0 0
BITMAP
0550
795D
F7FF
E1BF
E1BF
F7FF
F55F
FFFF
BFFE
2FF8
ENDCHAR
STARTCHAR trademark
ENCODING 8482
SWIDTH 578 0
DWIDTH 8 0
BBX 8 10 0 0
BITMAP
0550
7FFD
FFFF
FAAF
F64F
FBAF
FFFF
FFFF
BFFE
2FF8
ENDCHAR
STARTCHAR product
ENCODING 8719
SWIDTH 578 0
DWIDTH 8 0
BBX 8 10 0 0
BITMAP
0550
796D
EAA7
EDDA
ED9E
EDFA
EAF7
FEAF
BFFE
2FF8
ENDCHAR
STARTCHAR minus
ENCODING 8722
SWIDTH 428 0
DWIDTH 6 0
BBX 6 10 0 0
BITMAP
0500
7FD0
FFF0
E5B0
FFF0
FFF0
FFF0
FFF0
BFE0
2F80
ENDCHAR
STARTCHAR notequal
ENCODING 8800
SWIDTH 578 0
DWIDTH 8 0
BBX 8 10 0 0
BITMAP
0550
7FFD
FA6F
F96F
F45F
FEFF
FFFF
FFFF
BFFE
2FF8
ENDCHAR
STARTCHAR uni2706
ENCODING 9990
SWIDTH 578 0
DWIDTH 8 0
BBX 8 10 0 0
BITMAP
0550
7FBD
FE6F
F9AF
F6FF
F9FF
FD5F
FFAF
BFFE
2FF8
ENDCHAR
STARTCHAR uni2708
ENCODING 9992
SWIDTH 578 0
DWIDTH 8 0
BBX 8 10 0 0
BITMAP
0550
5145
4041
49A4
42D0
4040
4040
4001
4181
1554
ENDCHAR
STARTCHAR uniF6D6
ENCODING 63190
SWIDTH 419 0
DWIDTH 6 0
BBX 6 5 0 0
BITMAP
2A40
AEC0
AAD0
3BB0
1AA0
ENDCHAR
STARTCHAR uFFFF2
ENCODING 1048562
SWIDTH 578 0
DWIDTH 8 0
BBX 8 10 0 0
BITMAP
0550
5045
4041
4180
46A0
4040
4180
4001
4181
1554
ENDCHAR
STARTCHAR uFFFF3
ENCODING 1048563
SWIDTH 578 0
DWIDTH 8 0
BBX 8 10 0 0
BITMAP
0550
5045
4091
42A0
41C0
42A0
40D0
4041
4001
1554
ENDCHAR
STARTCHAR uFFFF4
ENCODING 1048564
SWIDTH 578 0
DWIDTH 8 0
BBX 8 10 0 0
BITMAP
0550
7FFD
FFAF
F7AF
F7BB
F7DF
FE6F
FFFF
BFFE
2FF8
ENDCHAR
STARTCHAR uFFFF5
ENCODING 1048565
SWIDTH 578 0
DWIDTH 8 0
BBX 8 10 0 0
BITMAP
0550
7EBD
FFBF
F65B
FD2F
FFBF
FFBF
FFFF
BE7E
2FF8
ENDCHAR
STARTCHAR uFFFF6
ENCODING 1048566
SWIDTH 578 0
DWIDTH 8 0
BBX 8 10 0 0
BITMAP
0550
7FBD
FFBF
FE7F
F95F
FFBF
FE7F
FFFF
BE7E
2FF8
ENDCHAR
STARTCHAR uFFFF8
ENCODING 1048568
SWIDTH 578 0
DWIDTH 8 0
BBX 8 10 0 0
BITMAP
0550
7FFD
FD7F
F86F
FA6F
F40F
F81F
FEBF
BD7E
2FF8
ENDCHAR
STARTCHAR uFFFF9
ENCODING 1048569
SWIDTH 578 0
DWIDTH 8 0
BBX 8 10 0 0
BITMAP
0550
5005
4091
4890
4844
4820
4190
4001
4001
1554
ENDCHAR
STARTCHAR uFFFFB
ENCODING 1048571
SWIDTH 578 0
DWIDTH 8 0
BBX 8 10 0 0
BITMAP
0550
7EBD
FA6F
F96F
FD7F
FA5F
FE7F
FFFF
BFFE
2FF8
ENDCHAR
STARTCHAR uFFFFC
ENCODING 1048572
SWIDTH 578 0
DWIDTH 8 0
BBX 8 10 0 0
BITMAP
0550
7EAD
E6A7
F59B
F9AF
FE7F
FFFF
FFFF
BFFE
2FF8
ENDCHAR
STARTCHAR uFFFFD
ENCODING 1048573
SWIDTH 578 0
DWIDTH 8 0
BBX 8 10 0 0
BITMAP
0550
7EBD
F81F
F40F
F66F
F86F
FD7F
FFBF
BD7E
2FF8
ENDCHAR
STARTCHAR uFFFFE
ENCODING 1048574
SWIDTH 578 0
DWIDTH 8 0
BBX 8 10 0 0
BITMAP
0550
7BE9
D967
E977
DD77
E597
FFFF
FFFF
BFFE
2FF8
ENDCHAR
STARTCHAR uFFFFF
ENCODING 1048575
SWIDTH 578 0
DWIDTH 8 0
BBX 8 10 0 0
BITMAP
0550
5145
47E1
4BF0
4990
4790
4280
4041
4281
1554
ENDCHAR
STARTCHAR .notdef
ENCODING -1
SWIDTH 1000 0
DWIDTH 14 0
BBX 1 1 0 0
BITMAP
00
ENDCHAR
STARTCHAR glyph1
ENCODING -1
SWIDTH 0 0
DWIDTH 0 0
BBX 1 1 0 0
BITMAP
00
ENDCHAR
ENDFONT
